<?xml version="1.0" ?><!DOCTYPE svg  PUBLIC '-//W3C//DTD SVG 1.1//EN'  'http://www.w3.org/Graphics/SVG/1.1/DTD/svg11.dtd'><svg height="512px" style="shape-rendering:geometricPrecision; text-rendering:geometricPrecision; image-rendering:optimizeQuality; fill-rule:evenodd; clip-rule:evenodd" version="1.1" viewBox="0 0 332.102 332.102" width="512px" xml:space="preserve" xmlns="http://www.w3.org/2000/svg" xmlns:xlink="http://www.w3.org/1999/xlink" xmlns:xodm="http://www.corel.com/coreldraw/odm/2003"><defs><style type="text/css">
   <![CDATA[
    .fil0 {fill:none}
    .fil3 {fill:black;fill-rule:nonzero}
    .fil1 {fill:#FF9900;fill-rule:nonzero}
    .fil2 {fill:white;fill-rule:nonzero}
   ]]>
  </style></defs><g id="Layer_x0020_1"><g id="_2358259861184"><rect class="fil0" height="332.102" width="332.102"/><g><path class="fil1" d="M190.153 220.725c1.327,-1.325 2.39,-2.464 2.199,-4.394 -0.091,-0.927 -0.322,-1.864 -0.59,-2.799 -1.09,-0.019 -2.179,-0.028 -3.268,-0.048 -14.515,-0.268 -29.03,-0.619 -43.539,-1.113 -13.125,-0.446 -26.293,-1.101 -39.276,-3.186 -12.762,-2.05 -25.36,-5.501 -36.915,-11.384 -0.271,-0.138 -0.535,-0.179 -0.783,-0.16 -7.787,-3.485 -15.174,-7.878 -21.892,-13.141 -0.404,-0.316 -0.893,-0.474 -1.354,-0.379 -2.322,-2.054 -4.495,-4.29 -6.494,-6.742 -4.717,-5.791 -8.464,-12.302 -12.136,-18.791 -0.047,-0.188 -0.092,-0.377 -0.14,-0.565 -0.117,-0.462 -0.386,-0.753 -0.714,-0.904 -0.993,-1.335 -3.264,0.066 -2.383,1.628 0.174,0.306 0.348,0.612 0.521,0.918 1.021,4.052 2.002,8.114 2.933,12.188 3.543,15.511 6.422,31.17 8.643,46.926 0.11,0.778 1.102,1.196 1.781,1.01 0.159,-0.044 0.292,-0.113 0.413,-0.194 10.674,0.859 21.386,1.198 32.094,1.014 0.127,-0.003 0.243,-0.02 0.354,-0.046 0.212,0.162 0.482,0.269 0.814,0.285 15.748,0.748 31.509,1.222 47.274,1.416 23.575,0.291 47.16,0.154 70.739,0.084 0.584,-0.526 1.159,-1.065 1.719,-1.623z"/><path class="fil1" d="M223.997 76.256c0.401,-0.401 0.878,-0.447 1.409,-0.373 1.397,0.196 2.794,0.392 4.192,0.588 0.342,-0.275 0.787,-0.409 1.246,-0.26 0.704,0.227 1.279,1.015 1.011,1.78 -0.615,1.752 -2.359,3.127 -4.279,2.982 -1.849,-0.138 -3.543,-1.46 -3.951,-3.309 -0.113,-0.512 -0.007,-1.029 0.372,-1.408z"/><path class="fil1" d="M168.459 76.648c0.129,-0.217 0.302,-0.39 0.519,-0.519 0.226,-0.131 0.469,-0.196 0.731,-0.197 1.267,-0.153 2.536,-0.306 3.803,-0.46 0.19,-0.022 0.41,0.042 0.611,0.141 0.218,0.018 0.434,0.076 0.604,0.185 0.309,0.199 0.581,0.497 0.666,0.865 0.091,0.402 0.023,0.743 -0.146,1.116 -0.287,0.631 -0.789,1.125 -1.347,1.521 -0.562,0.4 -1.239,0.582 -1.917,0.644 -0.692,0.063 -1.388,-0.14 -2.006,-0.438 -0.627,-0.303 -1.139,-0.82 -1.518,-1.396 -0.28,-0.426 -0.25,-1.033 0,-1.462z"/><path class="fil1" d="M112.239 76.547c0.253,-0.431 0.744,-0.728 1.25,-0.717 1.273,0.031 2.546,0.062 3.818,0.093 0.099,0.002 0.196,0.017 0.293,0.038 0.1,-0.06 0.207,-0.114 0.331,-0.147 0.347,-0.096 0.809,-0.053 1.116,0.145 0.61,0.394 0.989,1.321 0.519,1.981 -0.853,1.196 -2.154,1.97 -3.646,1.994 -0.721,0.01 -1.412,-0.187 -2.056,-0.497 -0.673,-0.325 -1.182,-0.843 -1.625,-1.429 -0.302,-0.399 -0.238,-1.055 0,-1.461z"/><path class="fil1" d="M57.387 75.805c1.114,-0.006 2.227,-0.013 3.341,-0.02 0.544,-0.453 1.451,-0.444 1.94,0.089 0.541,0.588 0.56,1.461 0,2.047 -0.932,0.973 -2.072,1.793 -3.463,1.863 -0.632,0.031 -1.308,-0.145 -1.856,-0.458 -0.659,-0.377 -1.121,-0.974 -1.358,-1.689 -0.3,-0.906 0.496,-1.826 1.396,-1.832z"/><path class="fil1" d="M58.492 96.675l34.256 -1.006c0.23,-0.295 0.593,-0.49 1.094,-0.465 5.337,0.267 10.673,0.535 16.009,0.802 2.686,-0.022 5.372,-0.034 8.057,-0.057 4.409,-0.037 8.801,-0.011 13.198,0.151 3.694,-0.159 7.388,-0.307 11.079,-0.374 4.241,-0.078 8.486,-0.044 12.722,0.188 0.061,0.003 0.117,0.017 0.176,0.026 0.176,-0.042 0.363,-0.071 0.57,-0.069 15.62,0.113 31.239,0.147 46.859,0.106 0.227,-0.072 0.476,-0.117 0.761,-0.107 11.259,0.426 22.524,0.584 33.791,0.471 0.195,-0.001 0.373,0.022 0.541,0.059 0.34,-0.3 0.796,-0.498 1.382,-0.498 2.794,0 2.798,4.342 0,4.342 -0.198,0 -0.377,-0.026 -0.547,-0.067 -0.34,0.301 -0.794,0.501 -1.376,0.506 -10.958,0.109 -21.915,-0.041 -32.867,-0.441 -0.177,0.045 -0.366,0.076 -0.575,0.077 -15.99,0.045 -31.98,0.01 -47.969,-0.106 -0.968,-0.007 -1.593,-0.537 -1.891,-1.221 -5.318,0.765 -10.687,0.638 -16.048,0.34 -1.066,-0.059 -2.132,-0.111 -3.197,-0.163 -0.182,0.479 -0.612,0.865 -1.294,0.902 -9.637,0.532 -19.273,0.047 -28.889,-0.647 -1.6,-0.077 -3.198,-0.179 -4.794,-0.316 -4.74,0.187 -9.456,0.554 -14.18,1.084 -6.383,0.717 -12.871,1.302 -19.173,-0.312 -0.192,-0.049 -0.348,-0.128 -0.484,-0.224l-6.342 0.105c-0.299,0.005 -0.545,-0.072 -0.749,-0.195 -0.04,0.002 -0.079,0.003 -0.12,0.004 -1.863,0.054 -1.862,-2.84 0,-2.895z"/><path class="fil1" d="M296.361 215.432c-1.15,0.742 -3.1,0.315 -3.701,-0.971 -0.682,-1.457 -0.914,-3.026 -1.483,-4.519 -0.54,-1.416 0.603,-2.912 1.89,-3.328 1.481,-0.48 2.825,0.571 3.327,1.889 0.238,0.624 0.407,1.267 0.575,1.912 0.088,0.339 0.176,0.678 0.278,1.013 0.074,0.244 0.353,0.876 0.085,0.303 0.643,1.374 0.353,2.848 -0.971,3.701zm-24.982 -45.159c-0.07,0.265 -0.171,0.53 -0.317,0.761 -0.136,0.215 -0.308,0.452 -0.492,0.63 -0.132,0.13 -0.429,0.364 -0.588,0.456 -0.018,0.009 -0.034,0.02 -0.052,0.029 -0.172,0.101 -0.505,0.236 -0.697,0.295 -0.022,0.007 -0.044,0.014 -0.068,0.019 -0.692,0.184 -1.323,0.122 -2.015,-0.018 -0.257,-0.052 -0.506,-0.142 -0.748,-0.242 -0.931,-0.386 -1.735,-0.79 -2.488,-1.481 -0.45,-0.412 -0.813,-0.976 -0.975,-1.567 -0.349,-1.27 0.214,-2.633 1.351,-3.295 0.598,-0.349 1.32,-0.479 2.006,-0.45 0.691,0.03 1.386,0.152 2.064,0.292 0.353,0.073 0.671,0.25 0.948,0.481 0.007,0.002 0.014,0.001 0.02,0.003 0.353,0.084 0.659,0.245 0.921,0.484 0.294,0.192 0.526,0.444 0.696,0.76 0.16,0.35 0.352,0.721 0.43,1.107 0.126,0.611 0.169,1.125 0.004,1.736zm-40.801 59.987c-0.716,0.718 -1.667,0.892 -2.632,0.696 -2.391,-0.488 -3.9,-2.763 -4.31,-5.037 -0.269,-1.496 0.391,-2.843 1.89,-3.327 0.906,-0.293 2.028,0.067 2.719,0.779 0.622,0.213 1.184,0.633 1.546,1.19 0.62,0.952 1.109,1.996 1.484,3.067 0.312,0.894 -0.05,1.986 -0.697,2.632zm71.097 -26.795c-2.489,-5.942 -7.442,-10.641 -13.262,-13.3 -0.584,-0.267 -1.259,-0.22 -1.706,0.218 1.237,-5.86 0.341,-12.084 -2.455,-17.39 -3.028,-5.744 -8.337,-10.002 -14.48,-12.019 -3.397,-1.116 -7.051,-1.512 -10.605,-1.106 -0.303,0.034 -0.587,0.137 -0.822,0.298 -0.088,0.009 -0.178,0.022 -0.272,0.049 -9.652,2.723 -17.33,10.5 -19.778,20.248 -0.634,2.527 -0.935,5.163 -0.854,7.768 0.038,1.196 0.232,2.378 0.267,3.572 0.029,0.966 -0.05,1.831 -0.981,2.312 -1.048,0.54 -2.199,0.917 -3.278,1.391 -1.107,0.486 -2.201,0.999 -3.276,1.551 -2.093,1.075 -4.106,2.299 -5.972,3.734 -3.818,2.935 -6.867,6.759 -8.275,11.413 -1.357,4.491 -1.208,9.485 0.353,13.904 3.168,8.966 11.969,14.749 21.367,14.982 9.219,0.229 17.935,-5.387 22.206,-13.452 0.088,-0.166 0.161,-0.339 0.246,-0.507 1.535,1.64 3.139,3.207 4.965,4.534 2.561,1.862 5.478,2.903 8.632,3.146 5.539,0.427 11.414,-0.837 16.43,-3.167 4.688,-2.178 8.911,-5.719 11.215,-10.415 2.713,-5.529 2.701,-12.116 0.335,-17.764z"/></g><g><path class="fil2" d="M233.886 97.549c0.01,-0.21 0.073,-0.405 0.188,-0.586 0.098,-0.184 0.234,-0.331 0.405,-0.442 0.152,-0.14 0.331,-0.234 0.537,-0.283 0.139,-0.018 0.279,-0.037 0.419,-0.056 0.284,0.001 0.549,0.072 0.795,0.215 0.332,0.215 0.64,0.542 0.725,0.942 0.124,0.596 0.249,1.192 0.373,1.788 0.066,0.209 0.076,0.418 0.028,0.628 -0.009,0.21 -0.071,0.405 -0.186,0.586 -0.1,0.184 -0.235,0.332 -0.407,0.442 -0.152,0.139 -0.33,0.234 -0.535,0.283 -0.14,0.018 -0.28,0.037 -0.419,0.056 -0.285,-0.001 -0.551,-0.073 -0.796,-0.215 -0.333,-0.215 -0.64,-0.542 -0.725,-0.942 -0.124,-0.596 -0.249,-1.192 -0.373,-1.787 -0.067,-0.21 -0.075,-0.42 -0.029,-0.629z"/><path class="fil2" d="M228.09 96.323c0.191,-0.327 0.565,-0.639 0.941,-0.724 0.404,-0.092 0.856,-0.072 1.215,0.159 0.335,0.216 0.634,0.54 0.724,0.942 0.198,0.887 0.312,1.803 0.324,2.713 0.005,0.401 -0.18,0.832 -0.461,1.114 -0.274,0.274 -0.723,0.48 -1.115,0.462 -0.407,-0.018 -0.83,-0.152 -1.114,-0.462 -0.286,-0.311 -0.457,-0.685 -0.462,-1.114 -0.006,-0.387 -0.038,-0.773 -0.084,-1.158 -0.038,-0.24 -0.075,-0.48 -0.128,-0.718 -0.091,-0.411 -0.058,-0.844 0.16,-1.214z"/><path class="fil2" d="M221.643 96.765c0.064,-0.196 0.173,-0.365 0.326,-0.508 0.274,-0.273 0.722,-0.479 1.115,-0.462 0.407,0.019 0.831,0.153 1.114,0.462 0.083,0.107 0.165,0.213 0.246,0.319 0.143,0.246 0.216,0.511 0.216,0.796l0.263 2.295c0.008,0.217 -0.036,0.419 -0.136,0.607 -0.063,0.195 -0.171,0.364 -0.325,0.507 -0.273,0.273 -0.722,0.48 -1.115,0.462 -0.408,-0.018 -0.831,-0.153 -1.115,-0.462 -0.081,-0.106 -0.163,-0.213 -0.246,-0.319 -0.143,-0.246 -0.214,-0.511 -0.215,-0.795l-0.263 -2.295c-0.009,-0.218 0.037,-0.42 0.135,-0.607z"/><path class="fil2" d="M215.773 97.166c0.009,-0.209 0.072,-0.405 0.187,-0.586 0.099,-0.184 0.235,-0.331 0.406,-0.442 0.152,-0.139 0.331,-0.233 0.535,-0.282 0.405,-0.092 0.857,-0.072 1.216,0.159 0.324,0.209 0.656,0.544 0.724,0.942 0.122,0.724 0.245,1.447 0.367,2.17 0.065,0.209 0.075,0.42 0.029,0.629 -0.01,0.209 -0.073,0.405 -0.188,0.586 -0.099,0.184 -0.234,0.331 -0.405,0.442 -0.153,0.14 -0.332,0.234 -0.537,0.282 -0.403,0.093 -0.856,0.072 -1.214,-0.159 -0.325,-0.209 -0.657,-0.544 -0.724,-0.942 -0.123,-0.723 -0.245,-1.447 -0.368,-2.17 -0.065,-0.21 -0.075,-0.42 -0.028,-0.629z"/><path class="fil2" d="M209.829 96.329c0.192,-0.327 0.566,-0.638 0.942,-0.724 0.403,-0.091 0.856,-0.071 1.214,0.159 0.344,0.222 0.616,0.538 0.724,0.942 0.252,0.936 0.504,1.872 0.755,2.808 0.107,0.397 0.049,0.86 -0.159,1.215 -0.191,0.327 -0.566,0.639 -0.941,0.725 -0.404,0.092 -0.857,0.071 -1.215,-0.159 -0.344,-0.223 -0.616,-0.539 -0.724,-0.942 -0.252,-0.936 -0.503,-1.872 -0.755,-2.809 -0.106,-0.397 -0.049,-0.859 0.159,-1.215z"/><path class="fil2" d="M204.155 96.639c0.064,-0.195 0.172,-0.364 0.326,-0.507 0.273,-0.273 0.721,-0.479 1.114,-0.462 0.407,0.019 0.831,0.153 1.114,0.462 0.083,0.106 0.165,0.213 0.247,0.319 0.143,0.246 0.215,0.511 0.216,0.795 0.113,0.853 0.226,1.705 0.339,2.557 0.009,0.217 -0.037,0.419 -0.136,0.608 -0.063,0.194 -0.172,0.364 -0.325,0.506 -0.274,0.274 -0.723,0.48 -1.115,0.462 -0.408,-0.018 -0.83,-0.152 -1.115,-0.462 -0.082,-0.106 -0.164,-0.212 -0.246,-0.318 -0.142,-0.247 -0.214,-0.511 -0.215,-0.796 -0.113,-0.852 -0.227,-1.704 -0.34,-2.557 -0.008,-0.216 0.037,-0.419 0.136,-0.607z"/><path class="fil2" d="M196.843 95.941c0.191,-0.327 0.567,-0.639 0.942,-0.725 0.403,-0.092 0.856,-0.071 1.215,0.159 0.346,0.224 0.61,0.538 0.723,0.942 0.283,1.003 0.433,2.056 0.453,3.096 0.009,0.399 -0.181,0.834 -0.461,1.115 -0.273,0.273 -0.722,0.478 -1.115,0.461 -0.407,-0.018 -0.83,-0.152 -1.114,-0.461 -0.287,-0.313 -0.453,-0.685 -0.462,-1.115 -0.007,-0.354 -0.04,-0.706 -0.081,-1.057 -0.065,-0.404 -0.148,-0.805 -0.259,-1.201 -0.11,-0.392 -0.047,-0.863 0.159,-1.214z"/><path class="fil2" d="M190.611 95.808c0.191,-0.327 0.566,-0.639 0.941,-0.724 0.404,-0.092 0.857,-0.072 1.215,0.159 0.347,0.224 0.61,0.538 0.724,0.942 0.325,1.142 0.529,2.306 0.666,3.485 0.043,0.374 -0.207,0.86 -0.462,1.114 -0.273,0.274 -0.721,0.48 -1.115,0.462 -0.407,-0.018 -0.83,-0.152 -1.114,-0.462 -0.081,-0.106 -0.163,-0.212 -0.246,-0.318 -0.143,-0.246 -0.214,-0.512 -0.215,-0.796 -0.001,-0.009 -0.002,-0.019 -0.004,-0.029 -0.124,-0.884 -0.305,-1.759 -0.55,-2.618 -0.111,-0.391 -0.045,-0.864 0.16,-1.215z"/><path class="fil2" d="M185.727 95.749c0.274,-0.273 0.723,-0.479 1.115,-0.461 0.407,0.018 0.83,0.152 1.114,0.461l0.247 0.319c0.142,0.246 0.214,0.511 0.215,0.796 0.094,0.935 0.188,1.868 0.283,2.803 0.038,0.378 -0.203,0.856 -0.462,1.115 -0.274,0.273 -0.722,0.479 -1.114,0.461 -0.409,-0.018 -0.831,-0.152 -1.116,-0.461 -0.082,-0.107 -0.163,-0.213 -0.245,-0.319 -0.143,-0.247 -0.215,-0.512 -0.216,-0.796 -0.094,-0.935 -0.189,-1.868 -0.282,-2.803 -0.038,-0.378 0.203,-0.856 0.461,-1.115z"/><path class="fil2" d="M179.94 95.744c0.064,-0.195 0.172,-0.364 0.326,-0.507 0.142,-0.153 0.312,-0.262 0.508,-0.326 0.187,-0.098 0.389,-0.144 0.607,-0.136 0.407,0.018 0.83,0.153 1.113,0.462 0.083,0.106 0.165,0.213 0.247,0.319 0.143,0.246 0.215,0.511 0.216,0.796 0.012,0.155 0.031,0.31 0.049,0.466 0.064,0.433 0.141,0.864 0.247,1.289 0.1,0.404 0.053,0.853 -0.159,1.215 -0.099,0.183 -0.235,0.33 -0.406,0.442 -0.152,0.139 -0.331,0.233 -0.536,0.282 -0.403,0.092 -0.856,0.072 -1.214,-0.159 -0.341,-0.22 -0.625,-0.539 -0.724,-0.942 -0.212,-0.849 -0.342,-1.722 -0.409,-2.593 -0.009,-0.218 0.036,-0.42 0.135,-0.608z"/><path class="fil2" d="M174.018 95.365c0.273,-0.273 0.722,-0.479 1.114,-0.462 0.408,0.019 0.831,0.152 1.114,0.462 0.293,0.317 0.441,0.681 0.462,1.114 0.018,0.338 0.055,0.674 0.095,1.009 0.062,0.419 0.135,0.837 0.233,1.249 0.096,0.407 0.055,0.849 -0.159,1.214 -0.19,0.327 -0.566,0.639 -0.942,0.725 -0.403,0.092 -0.856,0.071 -1.214,-0.159 -0.338,-0.218 -0.629,-0.539 -0.725,-0.942 -0.24,-1.013 -0.386,-2.056 -0.439,-3.096 -0.022,-0.39 0.189,-0.843 0.461,-1.114z"/><path class="fil2" d="M167.862 95.496c0.274,-0.273 0.723,-0.479 1.115,-0.461 0.408,0.018 0.83,0.151 1.114,0.461 0.083,0.106 0.164,0.212 0.247,0.319 0.143,0.245 0.215,0.511 0.215,0.795 0.119,1.022 0.239,2.043 0.359,3.064 0.043,0.374 -0.209,0.86 -0.463,1.115 -0.273,0.273 -0.721,0.479 -1.114,0.461 -0.407,-0.018 -0.831,-0.152 -1.115,-0.461 -0.082,-0.107 -0.164,-0.213 -0.246,-0.32 -0.143,-0.245 -0.215,-0.51 -0.215,-0.795 -0.119,-1.021 -0.239,-2.042 -0.358,-3.064 -0.044,-0.374 0.208,-0.86 0.461,-1.114z"/><path class="fil2" d="M161.83 96.254c0.064,-0.195 0.172,-0.364 0.326,-0.507 0.273,-0.273 0.721,-0.479 1.115,-0.462 0.407,0.019 0.83,0.153 1.113,0.462 0.084,0.107 0.165,0.213 0.247,0.319 0.143,0.246 0.215,0.512 0.216,0.795 0.089,0.808 0.178,1.615 0.267,2.422 0.008,0.217 -0.037,0.42 -0.136,0.607 -0.064,0.196 -0.172,0.365 -0.326,0.508 -0.273,0.274 -0.722,0.479 -1.115,0.462 -0.407,-0.019 -0.83,-0.153 -1.114,-0.462 -0.081,-0.106 -0.164,-0.212 -0.246,-0.319 -0.143,-0.246 -0.215,-0.511 -0.215,-0.796 -0.089,-0.807 -0.178,-1.614 -0.267,-2.422 -0.009,-0.216 0.036,-0.419 0.135,-0.607z"/><path class="fil2" d="M156.117 96.268c0.01,-0.21 0.073,-0.405 0.188,-0.586 0.191,-0.327 0.565,-0.639 0.942,-0.725 0.403,-0.091 0.856,-0.072 1.215,0.16 0.322,0.208 0.66,0.545 0.724,0.941 0.135,0.85 0.271,1.699 0.406,2.547 0.066,0.21 0.075,0.42 0.028,0.628 -0.009,0.211 -0.071,0.406 -0.186,0.587 -0.192,0.327 -0.567,0.638 -0.942,0.724 -0.404,0.092 -0.857,0.073 -1.215,-0.159 -0.323,-0.208 -0.661,-0.545 -0.724,-0.941 -0.136,-0.849 -0.272,-1.699 -0.407,-2.548 -0.066,-0.209 -0.075,-0.419 -0.029,-0.628z"/><path class="fil2" d="M151.066 95.236c0.274,-0.273 0.723,-0.479 1.115,-0.461 0.407,0.018 0.83,0.152 1.114,0.461 0.083,0.106 0.165,0.213 0.247,0.319 0.142,0.246 0.214,0.511 0.215,0.796 0.108,0.98 0.217,1.96 0.326,2.939 0.041,0.376 -0.206,0.859 -0.462,1.115 -0.273,0.273 -0.722,0.479 -1.115,0.462 -0.407,-0.019 -0.83,-0.153 -1.114,-0.462 -0.082,-0.107 -0.164,-0.213 -0.247,-0.319 -0.142,-0.246 -0.213,-0.511 -0.215,-0.796 -0.109,-0.979 -0.217,-1.959 -0.325,-2.939 -0.042,-0.376 0.206,-0.859 0.461,-1.115z"/><path class="fil2" d="M145.251 96.254c0.064,-0.195 0.173,-0.364 0.327,-0.507 0.142,-0.154 0.311,-0.263 0.507,-0.326 0.188,-0.099 0.39,-0.144 0.607,-0.136 0.408,0.018 0.831,0.153 1.115,0.462 0.082,0.106 0.164,0.212 0.246,0.319 0.143,0.245 0.215,0.511 0.216,0.795 0.088,0.723 0.177,1.444 0.266,2.167 0.007,0.217 -0.037,0.419 -0.136,0.607 -0.064,0.196 -0.172,0.364 -0.327,0.507 -0.142,0.154 -0.311,0.263 -0.506,0.326 -0.188,0.099 -0.391,0.144 -0.608,0.137 -0.407,-0.019 -0.83,-0.153 -1.114,-0.463 -0.082,-0.106 -0.165,-0.212 -0.247,-0.319 -0.142,-0.245 -0.213,-0.511 -0.215,-0.795 -0.088,-0.723 -0.177,-1.444 -0.266,-2.167 -0.008,-0.217 0.037,-0.419 0.135,-0.607z"/><path class="fil2" d="M139.99 95.875c0.063,-0.195 0.172,-0.364 0.326,-0.507 0.273,-0.274 0.721,-0.479 1.114,-0.461 0.408,0.017 0.831,0.152 1.114,0.461 0.083,0.106 0.165,0.212 0.247,0.319 0.143,0.246 0.215,0.511 0.216,0.795 0.091,0.85 0.183,1.699 0.274,2.549 0.009,0.217 -0.037,0.42 -0.135,0.607 -0.064,0.195 -0.173,0.365 -0.326,0.507 -0.274,0.273 -0.722,0.48 -1.115,0.462 -0.407,-0.018 -0.831,-0.152 -1.114,-0.462l-0.247 -0.319c-0.142,-0.245 -0.215,-0.511 -0.215,-0.795 -0.092,-0.85 -0.183,-1.699 -0.275,-2.549 -0.008,-0.216 0.037,-0.419 0.136,-0.607z"/><path class="fil2" d="M135.112 95.876c0.273,-0.274 0.721,-0.479 1.114,-0.463 0.407,0.019 0.83,0.153 1.114,0.463 0.283,0.308 0.462,0.686 0.462,1.114l0 2.423c0,0.404 -0.176,0.828 -0.462,1.115 -0.273,0.273 -0.721,0.479 -1.114,0.461 -0.408,-0.018 -0.831,-0.152 -1.114,-0.461 -0.283,-0.309 -0.462,-0.688 -0.462,-1.115l0 -2.423c0,-0.404 0.175,-0.829 0.462,-1.114z"/><path class="fil2" d="M129.477 97.409c-0.066,-0.21 -0.075,-0.419 -0.028,-0.628 0.01,-0.211 0.072,-0.406 0.187,-0.586 0.191,-0.327 0.566,-0.639 0.942,-0.725 0.403,-0.092 0.856,-0.072 1.214,0.159 0.325,0.21 0.657,0.544 0.725,0.942 0.153,0.898 0.236,1.804 0.184,2.714 -0.025,0.419 -0.16,0.813 -0.462,1.115 -0.273,0.274 -0.722,0.479 -1.115,0.462 -0.407,-0.019 -0.83,-0.152 -1.114,-0.462 -0.274,-0.298 -0.486,-0.697 -0.461,-1.115 0.034,-0.608 0.01,-1.217 -0.063,-1.822l-0.009 -0.054z"/><path class="fil2" d="M123.865 97.281c-0.065,-0.209 -0.075,-0.419 -0.028,-0.628 0.01,-0.21 0.072,-0.406 0.187,-0.586 0.192,-0.328 0.566,-0.639 0.942,-0.725 0.404,-0.092 0.857,-0.072 1.214,0.159 0.325,0.209 0.658,0.545 0.725,0.942 0.152,0.899 0.235,1.803 0.184,2.715 -0.024,0.418 -0.16,0.813 -0.462,1.114 -0.273,0.274 -0.722,0.48 -1.115,0.462 -0.407,-0.018 -0.83,-0.152 -1.114,-0.462 -0.274,-0.298 -0.485,-0.696 -0.461,-1.114 0.034,-0.611 0.009,-1.223 -0.065,-1.83 -0.002,-0.016 -0.004,-0.031 -0.007,-0.047z"/><path class="fil2" d="M118.189 96.001c0.064,-0.195 0.172,-0.364 0.327,-0.507 0.273,-0.273 0.721,-0.479 1.114,-0.462 0.407,0.019 0.83,0.153 1.114,0.462l0.247 0.319c0.142,0.246 0.214,0.511 0.216,0.795 0.073,0.852 0.148,1.703 0.222,2.554 0.008,0.217 -0.037,0.42 -0.136,0.607 -0.063,0.196 -0.171,0.364 -0.325,0.508 -0.275,0.273 -0.723,0.479 -1.115,0.461 -0.408,-0.018 -0.831,-0.152 -1.115,-0.461 -0.082,-0.107 -0.164,-0.213 -0.246,-0.32 -0.143,-0.245 -0.214,-0.511 -0.216,-0.795 -0.073,-0.851 -0.148,-1.702 -0.222,-2.554 -0.008,-0.216 0.036,-0.419 0.135,-0.607z"/><path class="fil2" d="M111.964 96.127c0.063,-0.196 0.171,-0.365 0.326,-0.508 0.273,-0.273 0.721,-0.479 1.114,-0.461 0.408,0.018 0.831,0.152 1.114,0.461 0.083,0.107 0.165,0.213 0.247,0.319 0.143,0.247 0.215,0.511 0.216,0.796 0.089,0.85 0.18,1.699 0.27,2.549 0.008,0.217 -0.037,0.42 -0.136,0.607 -0.064,0.196 -0.172,0.365 -0.326,0.508 -0.273,0.273 -0.721,0.479 -1.114,0.461 -0.408,-0.018 -0.831,-0.152 -1.114,-0.461 -0.082,-0.106 -0.165,-0.213 -0.247,-0.319 -0.143,-0.246 -0.215,-0.511 -0.215,-0.796 -0.091,-0.85 -0.18,-1.699 -0.271,-2.549 -0.008,-0.217 0.036,-0.419 0.136,-0.607z"/><path class="fil2" d="M106.812 95.619c0.274,-0.274 0.722,-0.48 1.114,-0.462 0.408,0.018 0.831,0.153 1.115,0.462 0.083,0.106 0.165,0.212 0.246,0.319 0.143,0.246 0.215,0.511 0.216,0.796 0.085,0.934 0.172,1.87 0.258,2.805 0.036,0.38 -0.201,0.854 -0.461,1.115 -0.274,0.273 -0.723,0.479 -1.115,0.461 -0.408,-0.018 -0.83,-0.152 -1.115,-0.461 -0.082,-0.107 -0.164,-0.213 -0.246,-0.32 -0.143,-0.246 -0.215,-0.51 -0.215,-0.795 -0.087,-0.935 -0.172,-1.871 -0.258,-2.805 -0.036,-0.38 0.201,-0.854 0.461,-1.115z"/><path class="fil2" d="M100.104 97.019c0.064,-0.195 0.172,-0.364 0.326,-0.507 0.143,-0.153 0.312,-0.262 0.507,-0.325 0.188,-0.099 0.391,-0.145 0.607,-0.136 0.139,0.018 0.28,0.037 0.419,0.055 0.267,0.075 0.499,0.211 0.696,0.406 0.082,0.107 0.165,0.213 0.247,0.319 0.142,0.246 0.214,0.511 0.215,0.795l0.135 1.659c0.009,0.216 -0.038,0.418 -0.135,0.607 -0.065,0.195 -0.173,0.364 -0.326,0.507 -0.143,0.153 -0.313,0.262 -0.508,0.325 -0.188,0.1 -0.39,0.144 -0.607,0.136 -0.14,-0.019 -0.279,-0.037 -0.419,-0.056 -0.267,-0.075 -0.499,-0.21 -0.696,-0.405 -0.082,-0.107 -0.164,-0.213 -0.246,-0.319 -0.143,-0.246 -0.215,-0.511 -0.215,-0.795l-0.136 -1.659c-0.008,-0.216 0.037,-0.418 0.136,-0.607z"/><path class="fil2" d="M93.974 96.383c0.063,-0.196 0.172,-0.365 0.325,-0.508 0.143,-0.153 0.312,-0.262 0.508,-0.326 0.187,-0.098 0.39,-0.143 0.607,-0.136 0.407,0.019 0.83,0.153 1.114,0.462 0.083,0.106 0.165,0.213 0.247,0.319 0.142,0.246 0.214,0.511 0.215,0.796 0.043,0.637 0.085,1.276 0.128,1.913 0.008,0.217 -0.037,0.419 -0.137,0.607 -0.063,0.195 -0.171,0.365 -0.325,0.508 -0.143,0.153 -0.312,0.261 -0.508,0.325 -0.187,0.099 -0.39,0.144 -0.606,0.136 -0.408,-0.018 -0.831,-0.152 -1.115,-0.461 -0.083,-0.107 -0.165,-0.213 -0.247,-0.32 -0.142,-0.246 -0.214,-0.51 -0.215,-0.795 -0.042,-0.637 -0.085,-1.276 -0.127,-1.913 -0.009,-0.218 0.037,-0.42 0.136,-0.607z"/><path class="fil2" d="M88.105 96.893c0.064,-0.195 0.172,-0.364 0.326,-0.507 0.142,-0.154 0.311,-0.263 0.507,-0.327 0.188,-0.098 0.39,-0.143 0.608,-0.135 0.407,0.018 0.83,0.152 1.114,0.462 0.082,0.106 0.164,0.212 0.246,0.319 0.143,0.245 0.215,0.511 0.216,0.795 0.042,0.638 0.085,1.276 0.127,1.913 0.008,0.217 -0.037,0.419 -0.135,0.608 -0.064,0.195 -0.173,0.364 -0.327,0.507 -0.142,0.153 -0.311,0.262 -0.507,0.325 -0.187,0.099 -0.391,0.145 -0.607,0.136 -0.408,-0.018 -0.831,-0.152 -1.114,-0.461 -0.083,-0.107 -0.165,-0.213 -0.247,-0.319 -0.143,-0.247 -0.215,-0.511 -0.216,-0.796 -0.041,-0.637 -0.084,-1.275 -0.126,-1.913 -0.009,-0.217 0.036,-0.419 0.135,-0.607z"/><path class="fil2" d="M81.857 96.255c0.064,-0.195 0.173,-0.364 0.326,-0.507 0.143,-0.154 0.311,-0.263 0.507,-0.326 0.188,-0.099 0.391,-0.144 0.607,-0.136 0.408,0.018 0.831,0.153 1.115,0.462l0.247 0.319c0.142,0.246 0.214,0.511 0.215,0.795l0.127 2.041c0.008,0.216 -0.036,0.419 -0.136,0.607 -0.063,0.195 -0.171,0.364 -0.326,0.507 -0.142,0.154 -0.311,0.262 -0.507,0.326 -0.187,0.099 -0.39,0.144 -0.606,0.136 -0.408,-0.018 -0.831,-0.152 -1.115,-0.462 -0.083,-0.106 -0.165,-0.212 -0.247,-0.319 -0.142,-0.245 -0.214,-0.511 -0.215,-0.795l-0.127 -2.041c-0.009,-0.217 0.036,-0.419 0.135,-0.607z"/><path class="fil2" d="M76.432 96.606c0.007,-0.408 0.171,-0.824 0.462,-1.114 0.273,-0.273 0.721,-0.479 1.115,-0.462 0.407,0.018 0.829,0.153 1.114,0.462 0.28,0.305 0.469,0.689 0.462,1.114 -0.014,0.808 -0.027,1.616 -0.041,2.425 -0.006,0.408 -0.171,0.824 -0.461,1.115 -0.274,0.273 -0.722,0.479 -1.114,0.461 -0.408,-0.019 -0.831,-0.152 -1.115,-0.461 -0.281,-0.306 -0.468,-0.69 -0.462,-1.115 0.013,-0.809 0.026,-1.617 0.04,-2.425z"/><path class="fil2" d="M70.889 96.383c0.064,-0.196 0.172,-0.365 0.326,-0.508 0.143,-0.153 0.312,-0.262 0.507,-0.326 0.188,-0.098 0.391,-0.143 0.607,-0.136 0.408,0.019 0.831,0.153 1.115,0.462 0.283,0.309 0.462,0.687 0.462,1.115l0 1.785c0.007,0.217 -0.037,0.42 -0.136,0.608 -0.064,0.195 -0.172,0.364 -0.326,0.507 -0.143,0.154 -0.312,0.262 -0.507,0.326 -0.188,0.099 -0.391,0.144 -0.608,0.136 -0.407,-0.019 -0.83,-0.153 -1.114,-0.462 -0.283,-0.308 -0.462,-0.688 -0.462,-1.115l0 -1.785c-0.008,-0.218 0.037,-0.42 0.136,-0.607z"/><path class="fil2" d="M65.022 96.51c0.064,-0.195 0.172,-0.364 0.326,-0.507 0.143,-0.154 0.312,-0.263 0.507,-0.326 0.188,-0.099 0.391,-0.144 0.607,-0.136 0.14,0.019 0.281,0.038 0.42,0.056 0.267,0.075 0.499,0.21 0.695,0.406 0.283,0.308 0.462,0.687 0.462,1.114l0 1.658c0.008,0.217 -0.038,0.42 -0.136,0.608 -0.064,0.194 -0.173,0.364 -0.326,0.507 -0.142,0.154 -0.312,0.262 -0.507,0.326 -0.188,0.098 -0.391,0.143 -0.608,0.136 -0.139,-0.02 -0.278,-0.039 -0.419,-0.057 -0.266,-0.075 -0.498,-0.21 -0.695,-0.405 -0.282,-0.309 -0.461,-0.688 -0.461,-1.115l0 -1.658c-0.009,-0.217 0.036,-0.418 0.135,-0.607z"/><path class="fil2" d="M59.543 97.294c0.01,-0.21 0.073,-0.406 0.187,-0.587 0.099,-0.183 0.235,-0.33 0.406,-0.441 0.152,-0.14 0.332,-0.234 0.537,-0.283l0.419 -0.056c0.284,0.001 0.549,0.073 0.795,0.215 0.106,0.083 0.212,0.164 0.319,0.247 0.195,0.196 0.33,0.428 0.405,0.695 0.082,0.384 0.163,0.767 0.246,1.15 0.064,0.21 0.074,0.419 0.028,0.628 -0.01,0.211 -0.073,0.406 -0.188,0.586 -0.1,0.184 -0.235,0.332 -0.406,0.443 -0.152,0.139 -0.331,0.233 -0.536,0.282 -0.139,0.019 -0.28,0.037 -0.419,0.056 -0.285,-0.001 -0.549,-0.072 -0.796,-0.215l-0.319 -0.247c-0.194,-0.196 -0.33,-0.428 -0.404,-0.695 -0.082,-0.383 -0.165,-0.766 -0.246,-1.15 -0.066,-0.209 -0.074,-0.419 -0.028,-0.628z"/><path class="fil2" d="M256.193 165.683c-5.151,2.46 -9.725,6.348 -12.555,11.349 -3.021,5.339 -3.925,11.917 -1.946,17.773 0.58,1.717 3.315,0.98 2.729,-0.752 -1.776,-5.256 -0.976,-11.065 1.798,-15.832 2.617,-4.496 6.746,-7.871 11.403,-10.094 1.643,-0.784 0.207,-3.225 -1.429,-2.444z"/><path class="fil2" d="M248.331 199.438c-0.068,-0.24 -0.189,-0.448 -0.365,-0.625l-0.914 -1.102c-0.128,-0.139 -0.28,-0.236 -0.455,-0.293 -0.169,-0.089 -0.351,-0.13 -0.546,-0.122 -0.194,-0.008 -0.376,0.033 -0.545,0.122 -0.175,0.057 -0.327,0.154 -0.456,0.293 -0.073,0.095 -0.147,0.19 -0.221,0.286 -0.128,0.22 -0.192,0.459 -0.193,0.714 0.017,0.125 0.033,0.251 0.051,0.376 0.067,0.24 0.188,0.448 0.363,0.625 0.305,0.368 0.611,0.735 0.915,1.103 0.128,0.138 0.28,0.236 0.456,0.292 0.168,0.089 0.35,0.13 0.545,0.123 0.195,0.007 0.377,-0.034 0.545,-0.123 0.176,-0.056 0.328,-0.154 0.455,-0.292 0.074,-0.096 0.148,-0.191 0.222,-0.287 0.128,-0.22 0.192,-0.458 0.193,-0.714 -0.017,-0.126 -0.034,-0.251 -0.05,-0.376z"/><path class="fil2" d="M233.589 202.137c-3.675,1.756 -7.342,3.866 -10.045,6.976 -2.607,3 -4.334,6.914 -3.976,10.945 0.16,1.801 2.991,1.817 2.83,0 -0.688,-7.749 6.499,-12.552 12.619,-15.477 1.643,-0.785 0.208,-3.227 -1.428,-2.444z"/><path class="fil2" d="M292.694 220.381c-3.824,3.753 -9.158,5.631 -14.491,5.031 -2.686,-0.303 -5.303,-1.268 -7.572,-2.726 -0.591,-0.381 -0.917,-0.519 -0.891,-1.257 0.027,-0.755 0.078,-1.497 0.038,-2.256 -0.082,-1.539 -0.36,-3.061 -0.822,-4.531 -0.545,-1.731 -3.279,-0.992 -2.729,0.753 0.522,1.657 0.786,3.342 0.736,5.082 -0.025,0.848 -0.157,1.686 0.138,2.506 0.291,0.808 0.921,1.334 1.601,1.813 2.6,1.83 5.728,2.947 8.865,3.367 6.269,0.84 12.624,-1.359 17.128,-5.781 1.302,-1.278 -0.7,-3.279 -2.001,-2.001z"/><path class="fil2" d="M78.294 213.625c-12.73,-0.859 -25.495,-1.158 -38.252,-0.904 -2.537,-12.584 -5.075,-25.168 -7.613,-37.752 -0.36,-1.784 -3.089,-1.029 -2.73,0.752 2.61,12.937 5.219,25.874 7.828,38.811 0.119,0.592 0.777,1.052 1.365,1.038 13.14,-0.295 26.288,0 39.402,0.885 1.818,0.123 1.811,-2.708 0,-2.83z"/><path class="fil2" d="M88.835 213.52c-1.619,0.131 -3.245,0.098 -4.856,-0.098 -0.335,-0.04 -0.774,0.188 -1.001,0.415 -0.246,0.245 -0.43,0.648 -0.414,1 0.015,0.366 0.136,0.746 0.414,1.001 0.295,0.271 0.606,0.366 1.001,0.414 1.611,0.196 3.237,0.229 4.856,0.098 0.38,-0.03 0.724,-0.137 1.001,-0.415 0.246,-0.245 0.43,-0.648 0.415,-1 -0.033,-0.716 -0.626,-1.479 -1.416,-1.415z"/><path class="fil2" d="M99.285 214.637c-0.111,-0.342 -0.323,-0.673 -0.65,-0.846 -0.112,-0.047 -0.225,-0.095 -0.338,-0.142 -0.251,-0.068 -0.501,-0.068 -0.752,0 -0.176,0.066 -0.361,0.104 -0.544,0.137 -0.142,0.008 -0.283,0.005 -0.425,-0.006 -0.183,-0.055 -0.364,-0.063 -0.547,-0.023 -0.188,0.009 -0.363,0.065 -0.526,0.168 -0.165,0.089 -0.297,0.21 -0.397,0.365 -0.125,0.136 -0.209,0.297 -0.254,0.481 -0.082,0.362 -0.063,0.768 0.144,1.09 0.192,0.299 0.485,0.575 0.846,0.651 0.263,0.055 0.535,0.092 0.804,0.11 0.144,0.008 0.289,0.008 0.433,-0.004 0.412,-0.031 0.83,-0.093 1.218,-0.24 0.184,-0.044 0.345,-0.128 0.481,-0.253 0.154,-0.1 0.276,-0.233 0.365,-0.397 0.103,-0.162 0.159,-0.338 0.167,-0.526 0.043,-0.188 0.034,-0.377 -0.025,-0.565z"/></g><g><path class="fil3" d="M229.548 227.068c0.292,0.805 0.268,1.612 -0.441,2.235 0.168,-0.149 -0.155,0.091 -0.219,0.105 -0.277,0.058 -0.533,0.034 -0.815,-0.044 -0.57,-0.156 -1.082,-0.505 -1.481,-0.935 -0.779,-0.843 -1.318,-2.019 -1.401,-3.168 -0.059,-0.814 0.134,-1.863 1.187,-1.691 0.431,0.07 0.792,0.359 1.109,0.661 0.647,0.613 1.658,1.724 2.061,2.837zm2.1 -2.061c-1.028,-1.782 -2.627,-3.85 -4.777,-4.219 -1.531,-0.261 -3.036,0.543 -3.923,1.768 -1.147,1.583 -0.871,3.196 -0.189,4.914 0.494,1.241 1.24,2.398 2.233,3.297 0.872,0.79 1.89,1.36 3.078,1.488 1.149,0.124 2.39,-0.256 3.201,-1.096 1.623,-1.683 1.485,-4.233 0.377,-6.152z"/><path class="fil3" d="M296.208 212.24c0.008,0.857 -0.284,1.609 -1.161,1.961 0.209,-0.084 -0.177,0.034 -0.24,0.026 -0.282,-0.038 -0.514,-0.145 -0.755,-0.312 -0.485,-0.337 -0.852,-0.837 -1.085,-1.376 -0.455,-1.053 -0.571,-2.342 -0.267,-3.453 0.216,-0.787 0.748,-1.712 1.683,-1.2 0.383,0.21 0.627,0.603 0.826,0.993 0.404,0.794 0.988,2.177 0.999,3.361zm2.667 -1.244c-0.378,-2.023 -1.197,-4.505 -3.102,-5.568 -1.355,-0.756 -3.043,-0.5 -4.288,0.36 -1.607,1.111 -1.883,2.725 -1.812,4.572 0.051,1.334 0.37,2.672 1.007,3.851 0.56,1.036 1.329,1.912 2.407,2.428 1.042,0.5 2.34,0.555 3.383,0.032 2.091,-1.046 2.81,-3.496 2.405,-5.675z"/><path class="fil3" d="M270.547 169.03c0.016,0.055 0.027,0.109 0.031,0.163 0.015,0.279 -0.172,0.527 -0.368,0.727 -0.985,1.009 -2.455,1.5 -3.845,1.214 -1.662,-0.34 -3.272,-2.669 -1.293,-3.763 0.991,-0.548 2.272,-0.43 3.318,-0.045 0.751,0.275 1.9,0.876 2.157,1.704zm1.92 -2.229c-0.724,-0.909 -1.766,-1.523 -2.81,-1.994 -0.938,-0.423 -2.007,-0.683 -3.04,-0.662 -1.556,0.032 -3.152,0.648 -4.24,1.779 -2.297,2.384 -0.87,6.013 1.82,7.377 2.068,1.049 4.571,0.968 6.56,-0.253 1.049,-0.645 2.065,-1.512 2.477,-2.714 0.431,-1.251 0.032,-2.53 -0.767,-3.533z"/><g><path class="fil3" d="M3.905 64.624c0.845,0 1.37,0.666 1.447,1.447 2.128,21.784 4.257,43.569 6.208,65.369 1.945,21.737 3.714,43.492 5.129,65.27 0.798,12.265 1.482,24.538 2.026,36.816 0.082,1.863 -2.813,1.858 -2.895,0 -0.967,-21.862 -2.385,-43.703 -4.081,-65.519 -1.692,-21.761 -3.661,-43.5 -5.727,-65.229 -1.164,-12.238 -2.359,-24.472 -3.555,-36.707 -0.076,-0.779 0.72,-1.447 1.448,-1.447zm14.085 113.461c0.833,0.037 1.386,0.637 1.447,1.448l0.359 4.742c0.057,0.757 -0.707,1.481 -1.448,1.448 -0.833,-0.037 -1.386,-0.637 -1.447,-1.448 -0.119,-1.58 -0.239,-3.162 -0.358,-4.742 -0.058,-0.758 0.706,-1.481 1.447,-1.448zm0.905 9.264c0.841,0 1.377,0.665 1.448,1.447 1.191,13.315 2.619,26.608 4.281,39.872 0.097,0.776 -0.735,1.447 -1.448,1.447 -0.863,0 -1.349,-0.668 -1.447,-1.447 -1.662,-13.264 -3.089,-26.557 -4.282,-39.872 -0.07,-0.779 0.715,-1.447 1.448,-1.447z"/><path class="fil3" d="M321.79 127.614c-2.241,2.335 -4.61,4.543 -7.112,6.6 -0.602,0.495 -0.596,1.43 -0.118,1.998 1.018,1.21 2.088,2.392 3.059,3.639 0.042,0.054 0.071,0.086 0.101,0.119 -0.08,0.064 -0.153,0.123 -0.155,0.125 -0.465,0.325 -0.983,0.574 -1.386,0.984 -1.776,1.809 -0.817,4.354 0.555,6.075 1.645,2.063 3.924,3.819 6.059,5.343 1.782,1.273 3.671,2.38 5.633,3.347 -3.631,4.367 -7.653,8.402 -12.014,12.043 -1.004,0.838 -2.541,1.692 -3.082,2.938 -0.634,1.464 0.271,2.674 1.112,3.807 1.162,1.561 2.466,2.996 3.861,4.339 -1.341,0.129 -2.682,0.259 -4.023,0.389 -0.732,0.071 -1.298,0.964 -1.125,1.655 0.393,1.571 0.925,3.096 1.591,4.565 -8.541,1.04 -17.097,1.948 -25.667,2.715 0.058,-0.434 0.111,-0.869 0.147,-1.307 0.561,-6.888 -1.595,-13.764 -5.701,-19.149 4.336,-17.99 10.872,-35.456 19.494,-51.832 2.349,-4.461 4.857,-8.837 7.5,-13.13 2.051,8.942 4.909,17.995 11.271,24.737zm-115.924 22.262c3.322,-0.007 6.644,-0.012 9.966,-0.019 1.629,-0.003 3.257,-0.005 4.886,-0.009l2.345 -0.003c0.391,-0.002 0.782,-0.002 1.173,-0.003l0.033 0c-0.023,-0.085 -0.045,-0.167 -0.054,-0.223 -0.068,-0.381 -0.136,-0.762 -0.203,-1.144 -0.169,-0.952 -0.337,-1.905 -0.506,-2.858 -0.327,-1.841 -0.653,-3.683 -0.98,-5.525 -0.148,-0.837 0.227,-1.699 1.102,-1.939 0.761,-0.209 1.789,0.258 1.938,1.101 0.517,2.922 1.036,5.843 1.553,8.765 0.212,1.199 0.859,2.884 0.194,4.023 -0.725,1.238 -2.469,0.951 -3.663,0.954 -5.928,0.01 -11.857,0.021 -17.784,0.032 -2.029,0.003 -2.031,-3.149 0,-3.152zm33.792 -89.903c-0.133,3.09 -1.241,6.516 -2.998,9.058 -0.691,0.997 -1.556,1.89 -2.529,2.655 -1.324,1.041 -3.065,2.153 -4.789,2.328 -1.246,0.284 -2.534,0.351 -3.808,0.14 -0.277,-0.045 -0.545,-0.019 -0.801,0.044 0.009,-0.018 0.016,-0.035 0.025,-0.052 0.125,-0.249 0.273,-0.482 0.429,-0.713 0.033,-0.039 0.065,-0.078 0.098,-0.117 0.79,-0.903 1.916,-1.408 3.122,-1.369 0.083,0.003 0.166,0.008 0.248,0.014 0.25,0.021 0.069,0.003 -0.072,-0.017 0.095,0.014 0.186,0.022 0.276,0.027 0.233,0.089 0.465,0.163 0.687,0.149 1.429,-0.096 3.053,-0.796 4.011,-1.876 1.29,-1.455 2.111,-3.369 2.696,-5.244 0.758,-2.425 1.059,-4.709 1.097,-7.251 0.044,-2.912 -0.424,-5.825 -1.333,-8.59 -0.444,-1.349 -0.994,-2.662 -1.647,-3.923 -0.327,-0.63 -0.679,-1.247 -1.057,-1.848 -0.244,-0.39 -0.738,-1.497 -1.157,-1.689 0.428,0.196 0.839,0.423 1.213,0.718 1.806,1.422 2.717,3.714 3.598,5.763 1.054,2.452 1.894,5.006 2.339,7.641 0.228,1.355 0.412,2.775 0.352,4.152zm-11.655 19.895c-1.656,0.097 -3.291,-1.136 -3.653,-2.755 2.407,0.482 4.502,0.064 6.853,-0.37 0.627,1.464 -2.034,3.056 -3.2,3.125zm-6.161 -22.799c-0.012,-3.275 0.703,-6.465 1.89,-9.513 0.894,-2.296 2.244,-4.69 4.638,-5.481 3.286,3.65 5.33,8.38 5.754,13.278 0.051,0.597 0.077,1.196 0.085,1.794 -4.122,-0.027 -8.245,-0.053 -12.367,-0.078zm-3.152 -0.021l-2.284 -0.014c0.185,-5.107 1.898,-10.113 4.997,-14.198 0.724,-0.955 1.495,-1.896 2.732,-2.121 0.133,-0.025 0.271,-0.031 0.408,-0.046 -1.56,1.365 -2.698,3.28 -3.497,5.179 -1.49,3.54 -2.371,7.349 -2.356,11.2zm-34.929 -0.284c-0.149,2.986 -0.488,6.276 -1.74,9.024 -1.253,2.747 -3.446,5.194 -6.063,6.71 -0.135,0.079 -1.415,0.777 -1.499,0.66 0.008,0.01 0.017,0.021 0.025,0.031 -1.579,0.646 -3.273,0.934 -4.995,0.72 0.059,-0.107 0.111,-0.218 0.15,-0.336 0.289,-0.894 1.06,-1.454 1.819,-1.908 0.595,-0.355 1.234,-0.611 1.84,-0.938 0.549,-0.298 1.105,-0.562 1.652,-0.859 1.081,-0.586 1.973,-1.486 2.735,-2.439 2.228,-2.788 2.907,-6.596 3.119,-10.072 0.221,-3.599 -0.445,-7.337 -1.684,-10.718 -0.738,-2.018 -1.759,-3.914 -3.15,-5.495 2.55,1.328 4.333,3.793 5.575,6.335 1.431,2.927 2.378,6.006 2.216,9.285zm-10.964 21.997c-1.861,0.512 -3.194,-0.422 -3.764,-1.751 2.081,0.229 4.147,-0.059 6.087,-0.751 -0.255,1.174 -1.072,2.156 -2.323,2.502zm-6.117 -22.042c-0.111,-3.07 0.381,-6.155 1.385,-9.058 0.793,-2.297 2.094,-4.417 4.096,-5.774 2.003,1.491 3.292,3.724 4.091,6.077 0.963,2.836 1.53,5.826 1.423,8.824l-10.995 -0.069zm-3.152 -0.02c-1.103,-0.007 -2.207,-0.014 -3.31,-0.02 -0.028,-2.217 0.595,-4.336 1.333,-6.428 0.665,-1.884 1.453,-3.728 2.522,-5.421 0.975,-1.545 2.364,-3.32 4.091,-4.069 0.206,-0.09 0.423,-0.15 0.646,-0.192 -1.608,1.567 -2.779,3.573 -3.582,5.693 -1.241,3.275 -1.829,6.929 -1.7,10.437zm-35.149 0.065c-0.149,2.986 -0.487,6.276 -1.739,9.024 -1.253,2.747 -3.447,5.194 -6.063,6.71 -0.135,0.079 -1.415,0.777 -1.499,0.66 0.008,0.01 0.017,0.021 0.025,0.031 -1.579,0.646 -3.274,0.934 -4.996,0.72 0.059,-0.107 0.112,-0.218 0.15,-0.336 0.29,-0.894 1.061,-1.454 1.821,-1.908 0.593,-0.355 1.232,-0.611 1.838,-0.938 0.55,-0.298 1.106,-0.562 1.652,-0.859 1.082,-0.586 1.974,-1.486 2.735,-2.439 2.229,-2.788 2.908,-6.596 3.121,-10.072 0.219,-3.599 -0.447,-7.337 -1.685,-10.718 -0.738,-2.018 -1.76,-3.914 -3.15,-5.495 2.549,1.328 4.332,3.793 5.574,6.335 1.432,2.927 2.379,6.006 2.216,9.285zm-10.964 21.997c-1.861,0.512 -3.193,-0.422 -3.763,-1.751 2.08,0.229 4.147,-0.059 6.086,-0.751 -0.254,1.174 -1.072,2.156 -2.323,2.502zm-6.126 -22.392c-0.062,-2.954 0.429,-5.915 1.395,-8.708 0.793,-2.297 2.093,-4.417 4.096,-5.774 2.003,1.491 3.291,3.724 4.091,6.077 0.926,2.726 1.481,5.593 1.43,8.474 -3.672,-0.022 -7.342,-0.046 -11.012,-0.069zm-3.152 -0.02c-1.1,-0.007 -2.2,-0.014 -3.299,-0.02 0.038,-2.091 0.633,-4.096 1.332,-6.078 0.665,-1.884 1.452,-3.728 2.522,-5.421 0.975,-1.545 2.364,-3.32 4.09,-4.069 0.206,-0.09 0.423,-0.15 0.646,-0.192 -1.608,1.567 -2.778,3.573 -3.581,5.693 -1.2,3.167 -1.789,6.686 -1.71,10.087zm-36.674 0.415c-0.149,2.986 -0.488,6.276 -1.74,9.024 -1.252,2.747 -3.445,5.194 -6.064,6.71 -0.135,0.079 -1.414,0.777 -1.497,0.66 0.007,0.01 0.017,0.021 0.024,0.031 -1.579,0.646 -3.273,0.934 -4.995,0.72 0.059,-0.107 0.112,-0.218 0.15,-0.336 0.289,-0.894 1.06,-1.454 1.82,-1.908 0.593,-0.355 1.233,-0.611 1.839,-0.938 0.549,-0.298 1.105,-0.562 1.652,-0.859 1.081,-0.586 1.973,-1.486 2.735,-2.439 2.228,-2.788 2.907,-6.596 3.119,-10.072 0.221,-3.599 -0.445,-7.337 -1.684,-10.718 -0.738,-2.018 -1.759,-3.914 -3.15,-5.495 2.55,1.328 4.333,3.793 5.575,6.335 1.43,2.927 2.378,6.006 2.216,9.285zm-10.964 21.997c-1.861,0.512 -3.194,-0.422 -3.764,-1.751 2.081,0.229 4.147,-0.059 6.087,-0.751 -0.255,1.174 -1.072,2.156 -2.323,2.502zm-6.137 -22.752c-0.017,-2.834 0.479,-5.669 1.405,-8.348 0.793,-2.297 2.094,-4.417 4.096,-5.774 2.003,1.491 3.292,3.724 4.091,6.077 0.887,2.612 1.437,5.355 1.436,8.115 -3.676,-0.024 -7.352,-0.047 -11.028,-0.07zm-3.151 -0.02c-1.092,-0.007 -2.184,-0.014 -3.275,-0.021 0.096,-1.96 0.659,-3.85 1.318,-5.717 0.664,-1.884 1.452,-3.728 2.521,-5.421 0.975,-1.545 2.364,-3.32 4.091,-4.069 0.206,-0.09 0.422,-0.15 0.646,-0.192 -1.609,1.567 -2.779,3.573 -3.583,5.693 -1.156,3.054 -1.749,6.439 -1.718,9.727zm-37.068 71.539c0.256,1.991 0.513,3.984 0.77,5.976l1.565 12.137c1.745,13.533 3.489,27.066 5.234,40.6l5.046 39.135c-0.102,0.059 -0.198,0.129 -0.282,0.219 -0.78,0.633 -1.525,1.276 -2.338,1.864l-2.718 1.961c-1.249,0.903 -2.5,1.805 -3.75,2.707 -1.383,0.999 -2.767,1.997 -4.15,2.996 -0.115,0.082 -0.236,0.166 -0.356,0.249 0.111,-1.102 0.09,-2.246 0.022,-3.308l-9.703 -152.486c-0.403,-6.333 -0.597,-13.352 3.459,-18.233 -0.307,0.371 0.421,3.117 0.491,3.668 0.155,1.223 0.303,2.447 0.445,3.672 0.29,2.513 0.552,5.028 0.796,7.545 0.49,5.036 0.911,10.077 1.346,15.118 1.045,12.111 2.571,24.143 4.123,36.18zm39.955 52.982c9.206,0.614 20.705,-0.138 29.141,-4.52 6.035,12.206 17.002,21.171 29.074,27.166 5.397,2.68 10.97,4.856 16.667,6.628 -4.019,-0.261 -8.032,-0.612 -12.033,-1.079 -16.551,-1.936 -33.039,-5.883 -48.138,-13.054 -9.714,-4.614 -18.817,-10.515 -26.735,-17.749 3.746,1.494 7.811,2.327 12.024,2.608zm221.432 -58.931c-0.093,-0.449 -0.186,-0.898 -0.273,-1.348 -2.454,-12.61 -4.138,-25.37 -5.026,-38.185 -0.444,-6.401 -0.322,-12.831 -0.734,-19.223 -0.405,-6.284 -4.771,-5.483 -10.376,-5.519 -5.507,-0.034 -11.015,-0.07 -16.524,-0.104 -0.11,-1.384 -0.328,-2.759 -0.645,-4.102 -1.446,-6.128 -4.452,-13.242 -10.996,-15.233 -3.085,-0.938 -6.985,-1.255 -9.758,0.708 -1.19,0.841 -2.075,2.032 -2.909,3.209 -3.143,4.434 -4.856,9.812 -5.037,15.232l-26.371 -0.167c-0.073,-4.39 -1.247,-8.768 -3.422,-12.469 -1.315,-2.239 -3.095,-4.226 -5.317,-5.595 -1.481,-0.911 -3.132,-1.247 -4.849,-1.333 -1.547,-0.078 -3.263,-0.253 -4.795,0.026 -2.981,0.541 -5.225,2.903 -6.833,5.281 -1.35,1.997 -2.299,4.257 -3.104,6.52 -0.845,2.37 -1.544,4.851 -1.496,7.381l-25.569 -0.161c-0.128,-4.272 -1.302,-8.517 -3.418,-12.119 -1.316,-2.239 -3.095,-4.226 -5.318,-5.595 -1.48,-0.911 -3.131,-1.247 -4.848,-1.333 -1.547,-0.078 -3.264,-0.253 -4.795,0.026 -2.981,0.541 -5.225,2.903 -6.834,5.281 -1.35,1.997 -2.298,4.257 -3.104,6.52 -0.806,2.261 -1.483,4.622 -1.503,7.031 -9.039,-0.057 -18.077,-0.114 -27.116,-0.171 -0.183,-4.15 -1.342,-8.258 -3.399,-11.759 -1.315,-2.239 -3.095,-4.226 -5.317,-5.595 -1.481,-0.911 -3.131,-1.247 -4.849,-1.333 -1.547,-0.078 -3.263,-0.253 -4.795,0.026 -2.981,0.541 -5.225,2.903 -6.833,5.281 -1.35,1.997 -2.299,4.257 -3.105,6.52 -0.764,2.148 -1.408,4.387 -1.488,6.672 -10.111,-0.065 -20.221,-0.128 -30.332,-0.192 -1.351,-0.009 -2.713,-0.016 -4.037,0.251 -4.57,0.925 -7.947,5.052 -9.338,9.508 -0.013,0.042 -0.026,0.083 -0.039,0.125 -1.367,4.503 -1.078,9.321 -0.776,14.017l0.377 5.879c0.663,10.315 1.325,20.629 1.988,30.943l1.987 30.942c0.663,10.314 1.326,20.629 1.987,30.943l1.988 30.942c0.331,5.157 0.662,10.314 0.993,15.471 0.166,2.578 0.332,5.156 0.497,7.735 0.083,1.291 0.161,2.583 0.249,3.873 0.15,2.202 0.294,4.3 2.792,4.756 1.924,0.351 3.881,-0.015 5.813,-0.035 4.562,-0.049 9.124,-0.097 13.687,-0.146l16.394 -0.173c4.586,-0.048 9.172,-0.097 13.758,-0.145 1.926,-0.02 3.852,-0.041 5.777,-0.061 32.649,-0.345 65.297,-0.69 97.946,-1.036l12.692 -0.134c6.755,1.923 13.641,3.409 20.401,5.338 0.113,0.033 0.23,0.062 0.344,0.1 -0.001,0.014 -0.001,0.022 -0.003,0.039 -0.047,0.39 0.019,0.829 0.03,1.223 0.018,0.815 0.038,1.63 0.057,2.445 0.041,1.689 0.081,3.378 0.122,5.068 0.029,1.208 1.352,2.005 2.352,1.159 2.274,-1.926 4.548,-3.85 6.821,-5.775 2.464,4.296 6.236,7.687 10.764,9.754 0.992,0.452 2.041,-0.636 1.847,-1.605 -0.273,-1.36 -0.364,-2.713 -0.294,-4.076 5.542,1.121 10.89,3.165 15.766,6.028 0.879,0.515 2.15,0.035 2.193,-1.079 0.186,-4.809 0.97,-9.55 2.341,-14.157 4.48,-0.854 8.785,-2.816 12.467,-5.732 2.781,-2.202 5.078,-4.935 6.741,-7.962 0.56,0.54 1.142,1.038 1.738,1.513 -3.914,8.787 -8.819,17.11 -14.584,24.81 -0.678,0.906 0.279,2.559 1.445,2.172 3.159,-1.049 6.174,-2.401 9.021,-4.092 -0.048,3.231 -0.613,6.446 -1.645,9.51 -0.396,1.178 0.86,2.243 1.964,1.725l5.15 -2.41c-0.224,4.542 -1.331,9.026 -3.363,13.111 -0.636,1.28 0.432,2.555 1.806,2.05 11.237,-4.131 23.114,1.469 31.65,8.697 2.646,2.241 5.096,4.713 7.464,7.243 0.996,1.065 2.599,0.157 2.449,-1.205 -1.081,-9.773 1.769,-19.416 5.227,-28.447 1.016,-2.656 2.098,-5.287 3.187,-7.915 0.295,-0.709 -0.198,-1.557 -0.884,-1.796 -2.272,-0.789 -4.566,-1.514 -6.872,-2.201 1.544,-3.27 3.227,-6.471 5.053,-9.593 0.45,-0.769 0.184,-1.828 -0.724,-2.121 -2.346,-0.756 -4.691,-1.512 -7.037,-2.269 1.882,-2.967 3.763,-5.933 5.645,-8.901 0.476,-0.75 1.117,-1.524 1.139,-2.45 0.027,-1.142 -0.917,-1.782 -1.757,-2.348 -1.178,-0.795 -2.384,-1.547 -3.601,-2.28 2.59,-5.359 2.815,-11.748 1.097,-17.516 -1.865,-6.261 -5.908,-11.335 -11.239,-14.749 7.918,-0.747 15.824,-1.603 23.717,-2.584 0.889,-0.11 1.431,-1.245 1.004,-2.015 -0.735,-1.326 -1.34,-2.699 -1.806,-4.129 1.843,-0.178 3.687,-0.357 5.531,-0.535 1.359,-0.131 1.371,-1.878 0.516,-2.571 -2.076,-1.684 -3.942,-3.623 -5.566,-5.746 -0.228,-0.296 -0.467,-0.594 -0.672,-0.907 -0.033,-0.052 -0.1,-0.213 -0.16,-0.322 0.108,-0.087 0.263,-0.27 0.344,-0.337 0.255,-0.211 0.519,-0.413 0.777,-0.621 1.073,-0.869 2.129,-1.762 3.164,-2.677 4.194,-3.706 8.041,-7.788 11.54,-12.154 0.616,-0.77 0.032,-1.788 -0.724,-2.121 -2.475,-1.091 -4.823,-2.45 -7.01,-4.039 -1.043,-0.758 -2.053,-1.562 -3.008,-2.427 -0.863,-0.782 -1.821,-1.591 -2.481,-2.56 -0.328,-0.483 -0.865,-1.335 -0.457,-1.896 0.178,-0.244 0.589,-0.4 0.837,-0.562 0.487,-0.317 0.98,-0.658 1.288,-1.167 0.72,-1.186 0.248,-2.387 -0.553,-3.377 -0.693,-0.857 -1.41,-1.697 -2.124,-2.537 2.488,-2.116 4.855,-4.367 7.076,-6.764 0.49,-0.529 0.71,-1.423 0.118,-1.999 -7.774,-7.57 -10.329,-18.543 -12.484,-28.793 -0.262,-1.247 -1.843,-1.501 -2.571,-0.516 -6.72,9.089 -17.399,14.821 -28.654,15.589 -0.66,0.045 -1.05,0.72 -1.146,1.29 -0.357,2.105 -0.713,4.212 -1.07,6.319 -0.037,0.221 -0.066,0.445 -0.112,0.665 -0.015,0.075 -0.053,0.142 -0.076,0.187 -0.144,-0.006 -0.588,0.072 -0.558,0.068 -0.203,0.03 -0.409,0.055 -0.614,0.075 -0.662,0.067 -1.328,0.067 -1.991,0.024zm-105.661 114.779l-58.133 0.615c-32.278,0.341 -64.557,0.682 -96.835,1.024 0.314,-0.227 0.629,-0.454 0.943,-0.681 1.302,-0.94 2.604,-1.879 3.906,-2.819 2.604,-1.88 5.208,-3.76 7.812,-5.64 0.171,-0.123 0.319,-0.269 0.44,-0.43 0.02,0.001 0.037,0.006 0.057,0.007 18.596,0.33 37.193,0.61 55.79,0.836 30.293,0.37 60.589,0.595 90.883,0.687 -2.044,1.176 -4.132,2.281 -6.262,3.31 -1.151,0.557 -0.937,2.165 0.17,2.61 0.409,0.164 0.818,0.324 1.229,0.481zm9.958 -9.546c-49.977,-0.127 -99.952,-0.623 -149.921,-1.502 -2.639,-20.463 -5.278,-40.924 -7.917,-61.386 3.535,18.287 7.071,36.575 10.607,54.862 0.18,0.928 0.399,1.929 1.111,2.55 0.742,0.648 1.813,0.708 2.798,0.735 1.217,0.035 2.435,0.068 3.653,0.102 3.007,0.082 6.015,0.162 9.022,0.24 3.007,0.077 6.014,0.154 9.023,0.227 3.007,0.074 6.014,0.146 9.022,0.214 3.007,0.07 6.015,0.137 9.022,0.202 3.008,0.065 6.016,0.128 9.024,0.189 3.007,0.061 6.014,0.119 9.022,0.175 3.008,0.056 6.016,0.111 9.024,0.163 3.007,0.052 6.015,0.102 9.023,0.149 3.008,0.048 6.016,0.093 9.024,0.137 3.009,0.044 6.016,0.085 9.024,0.124 3.008,0.039 6.017,0.075 9.025,0.11 3.008,0.035 6.016,0.067 9.025,0.098 3.008,0.03 6.016,0.059 9.024,0.085 3.008,0.026 6.016,0.05 9.025,0.071 3.008,0.022 6.016,0.042 9.024,0.059 2.576,0.015 5.152,0.029 7.727,0.04 -1.12,0.81 -2.258,1.595 -3.411,2.356zm7.561 -5.521c-50.524,-0.19 -101.044,-0.978 -151.547,-2.408 -4.023,-20.746 -8.047,-41.491 -12.069,-62.237 7.665,18.298 23.621,32.227 41.507,40.81 17.887,8.582 37.695,12.316 57.384,14.748 4.946,0.61 9.903,1.144 14.866,1.611 5.635,0.53 11.278,0.971 16.927,1.337 5.648,0.367 11.302,0.658 16.957,0.887 5.659,0.229 11.321,0.397 16.983,0.515 1.025,0.021 2.051,0.036 3.076,0.051 0.085,0.328 0.168,0.657 0.249,0.986 -1.41,1.276 -2.855,2.51 -4.333,3.7zm2.494 -10.086c-11.419,-0.176 -22.799,-0.785 -34.063,-2.232 -25.501,-3.275 -56.844,-12.445 -68.085,-38.177 -1.891,-4.329 -9.962,0.879 -12.805,1.654 -4.13,1.125 -8.445,1.446 -12.699,1.72 -5.847,0.376 -11.865,0.197 -17.427,-1.829 -11.92,-4.341 -15.718,-16.981 -18.731,-28.077 -7.336,-27.022 -12.193,-54.744 -12.422,-82.786 16.959,0.358 33.917,0.668 50.878,0.923 -0.357,1.118 -0.854,2.166 -1.562,3.035 -1.014,1.245 -2.369,2.125 -3.79,2.849 -1.394,0.709 -2.82,0.905 -3.829,2.199 -0.959,1.23 -1.655,2.783 -1.876,4.33 -0.205,1.437 -0.143,2.896 0.531,4.212 0.675,1.316 2,2.09 3.335,2.596 2.552,0.968 5.486,0.305 7.218,-1.851 1.175,-1.463 1.63,-3.281 1.43,-5.064 0.388,-0.248 0.769,-0.51 1.137,-0.791 2.589,-1.971 4.564,-4.575 5.775,-7.594 0.492,-1.225 0.867,-2.496 1.143,-3.791 15.722,0.217 31.445,0.392 47.168,0.517 -0.334,0.872 -0.757,1.69 -1.325,2.388 -1.014,1.245 -2.369,2.125 -3.792,2.849 -1.393,0.709 -2.818,0.905 -3.828,2.199 -0.958,1.23 -1.655,2.783 -1.876,4.33 -0.205,1.437 -0.143,2.896 0.532,4.212 0.674,1.316 1.999,2.09 3.335,2.596 2.552,0.968 5.485,0.305 7.217,-1.851 1.176,-1.463 1.63,-3.281 1.43,-5.064 0.389,-0.248 0.769,-0.51 1.138,-0.791 2.589,-1.971 4.563,-4.575 5.775,-7.594 0.417,-1.041 0.746,-2.116 1.008,-3.209 15.223,0.103 30.446,0.169 45.669,0.19 -0.319,0.775 -0.714,1.503 -1.227,2.133 -1.014,1.245 -2.369,2.125 -3.791,2.849 -1.393,0.709 -2.82,0.905 -3.828,2.199 -0.959,1.23 -1.655,2.783 -1.876,4.33 -0.206,1.437 -0.143,2.896 0.53,4.212 0.676,1.316 2.001,2.09 3.336,2.596 2.551,0.968 5.486,0.305 7.217,-1.851 1.176,-1.463 1.631,-3.281 1.431,-5.064 0.389,-0.248 0.769,-0.51 1.137,-0.791 2.589,-1.971 4.563,-4.575 5.775,-7.594 0.393,-0.978 0.708,-1.986 0.963,-3.011 15.777,0.004 31.556,-0.028 47.334,-0.115 -0.507,1.955 -1.328,4.746 -3.218,5.81 -4.351,-1.657 -8.706,1.824 -9.237,6.157 -0.339,2.775 1.153,5.713 3.62,7.053 2.523,1.37 5.839,0.93 7.887,-1.104 1.529,-1.519 2.067,-3.711 1.855,-5.82 2.263,-1.344 4.2,-3.274 5.579,-5.604 1.204,-2.034 1.965,-4.253 2.363,-6.543 7.013,-0.046 14.026,-0.097 21.038,-0.16 0.626,13.119 0.966,26.317 2.257,39.381 0.836,8.455 2.388,16.793 4.371,25.036 -4.839,0.939 -9.602,2.21 -14.281,3.787 -0.555,0.187 -0.898,0.991 -0.766,1.535 0.792,3.258 1.284,6.595 1.379,9.949 0.022,0.772 0.046,1.551 0.009,2.322 -0.034,0.71 -0.024,0.792 -0.689,0.964 -1.82,0.471 -3.669,0.858 -5.5,1.286 -0.929,0.216 -1.376,1.149 -1.005,2.015 0.53,1.235 1.059,2.47 1.587,3.705 -3.169,0.205 -6.265,0.894 -9.245,2.068 -1.08,0.426 -0.924,1.848 -0.156,2.45 1.97,1.545 3.941,3.089 5.911,4.634 -2.477,1.633 -4.766,3.641 -6.792,5.959 -4.305,4.924 -7.483,10.957 -7.487,17.631 -0.002,2.688 0.39,5.497 1.151,8.231 -3.047,0.604 -6.141,1.772 -9.028,3.388 -0.971,-1.218 -1.942,-2.434 -2.914,-3.652 -0.626,-0.784 -1.687,-0.492 -2.239,0.16 -2.8,3.309 -5.896,6.36 -9.213,9.148 -0.395,-1.142 -0.908,-2.238 -1.578,-3.255 -0.578,-0.878 -1.783,-1.118 -2.45,-0.156 -1.799,2.595 -3.491,5.26 -5.083,7.986l-12.179 -4.116c-1.215,-0.41 -2.188,0.859 -1.726,1.964 0.798,1.908 1.52,3.842 2.169,5.8zm82.862 -84.298c0.12,-0.039 0.24,-0.079 0.36,-0.12l0.005 0.06 -0.365 0.06zm-214.974 -29.512c12.652,-0.238 25.306,-0.433 37.959,-0.575 23.85,-0.267 47.7,-0.362 71.551,-0.285 23.85,0.077 47.7,0.328 71.547,0.748 0.037,0.001 0.069,-0.007 0.105,-0.009 0.157,0.644 0.314,1.288 0.47,1.932l-39.517 -0.018 -71.491 -0.031c-23.479,-0.011 -46.959,-0.022 -70.438,-0.032 -0.063,-0.577 -0.124,-1.154 -0.186,-1.73zm-2.253 4.41c0.983,0.889 3.136,0.473 4.339,0.473 1.787,0.001 3.574,0.002 5.361,0.002 3.575,0.002 7.149,0.004 10.724,0.005 7.071,0.003 14.141,0.01 21.212,0.01 23.769,0.01 47.539,0.022 71.308,0.032 0.167,0 0.335,0 0.503,0l6.949 0.003 12.809 0.006c5.24,0.002 10.48,0.005 15.719,0.007 5.225,0.003 10.451,0.005 15.676,0.007 6.783,0.003 13.542,-0.067 20.321,-0.246 0.732,-0.02 1.727,0.11 2.275,-0.498 0.561,-0.625 0.174,-1.411 0.003,-2.108 -0.214,-0.869 -0.427,-1.737 -0.628,-2.61 -0.182,-0.8 -0.27,-1.929 -0.997,-2.448 -0.98,-0.699 -2.033,-0.285 -3.135,-0.324 -1.005,-0.036 -2.015,-0.036 -3.021,-0.053 -2.062,-0.034 -4.124,-0.068 -6.185,-0.1 -10.006,-0.157 -20.013,-0.279 -30.019,-0.379 -23.85,-0.228 -47.701,-0.285 -71.551,-0.169 -10.422,0.051 -20.843,0.135 -31.264,0.252 -7.776,0.088 -15.553,0.193 -23.33,0.318 -3.888,0.061 -7.776,0.128 -11.664,0.199 -1.697,0.03 -6.19,-0.652 -6.55,1.832 -0.033,0.226 -0.046,0.453 -0.046,0.682 0.008,1.233 0.218,4.228 1.191,5.107zm49.108 23.514c-2.211,0.041 -4.467,0.196 -6.686,0.145 0.001,-0.053 0.001,-0.104 -0.002,-0.139 -0.026,-0.34 -0.051,-0.679 -0.077,-1.019 -0.051,-0.679 -0.102,-1.359 -0.153,-2.038l-0.246 -3.288 3.842 0.066c0.74,0.012 1.459,-0.626 1.438,-1.391 -0.021,-0.767 -0.598,-1.426 -1.391,-1.44l-3.96 -0.066c-0.047,-0.002 -0.094,0.008 -0.142,0.013 -0.051,-0.682 -0.102,-1.362 -0.153,-2.043 -0.046,-0.623 -0.093,-1.245 -0.14,-1.868 -0.017,-0.228 -0.078,-0.638 -0.122,-1.015 0.211,0.009 0.412,0.023 0.511,0.019 0.561,-0.02 1.122,-0.04 1.682,-0.06 1.065,-0.039 2.131,-0.077 3.196,-0.115 1.813,-0.065 1.873,-2.896 0.048,-2.831 -1.57,0.058 -3.14,0.114 -4.709,0.17 -1.247,0.045 -3.114,-0.197 -3.522,1.374 -0.177,0.683 0.022,1.55 0.074,2.241 0.055,0.735 0.11,1.471 0.165,2.207 0.115,1.528 0.23,3.056 0.344,4.584 0.112,1.471 0.222,2.943 0.331,4.415 0.06,0.792 0.12,1.584 0.18,2.376 0.055,0.736 0.038,1.549 0.589,2.12 0.927,0.959 2.964,0.522 4.156,0.5 1.567,-0.029 3.133,-0.058 4.7,-0.087 1.816,-0.034 1.872,-2.865 0.047,-2.83zm13.04 -1.353c-1.176,1.337 -3.225,1.7 -4.775,0.773 -1.879,-1.125 -2.089,-3.787 -2.179,-5.745 -0.112,-2.469 -0.285,-5.422 1.35,-7.485 1.003,-1.265 3.378,-2.191 4.499,-0.508 1.006,1.508 3.459,0.092 2.445,-1.429 -1.383,-2.072 -4.1,-2.824 -6.403,-1.905 -2.46,0.982 -3.981,3.438 -4.476,5.96 -0.529,2.693 -0.438,5.765 0.095,8.457 0.49,2.468 1.892,4.705 4.327,5.603 2.424,0.893 5.399,0.234 7.118,-1.719 1.198,-1.364 -0.796,-3.373 -2.001,-2.002zm-32.791 1.097c-1.291,0.957 -3.002,1.198 -4.568,0.992 -0.381,-0.049 -0.762,-0.143 -1.131,-0.249 -0.041,-0.012 -0.22,-0.066 -0.369,-0.114 0.091,-0.327 -0.081,-1.02 -0.106,-1.351l-0.117 -1.542c-0.293,-3.853 -0.586,-7.705 -0.878,-11.558 4.666,-1.208 9.793,1.933 10.076,6.982 0.144,2.55 -0.799,5.277 -2.907,6.84zm2.036 -14.372c-2.946,-2.39 -7.058,-3.271 -10.668,-1.97 -0.034,0.012 -0.061,0.031 -0.094,0.045 -0.723,-0.023 -1.43,0.425 -1.358,1.355 0.346,4.569 0.694,9.137 1.041,13.706 0.077,1.016 -0.036,2.322 0.425,3.252 0.475,0.956 1.494,1.289 2.464,1.536 2.005,0.511 4.227,0.452 6.151,-0.338 6.886,-2.826 7.522,-13.137 2.039,-17.586zm49.215 16.562c-0.211,-0.821 -0.961,-1.109 -1.724,-1.018 -1.974,0.236 -4.184,0.477 -6.164,0.206 -1.575,-0.216 -1.279,-2.254 -1.252,-3.435 0.024,-1.068 0.063,-2.135 0.111,-3.201 1.463,0.313 2.998,0.282 4.442,-0.12 0.712,-0.199 1.243,-0.982 1.017,-1.723 -0.22,-0.722 -0.96,-1.232 -1.723,-1.018 -0.323,0.089 -0.65,0.153 -0.98,0.203 -0.589,0.055 -1.178,0.044 -1.765,-0.03 -0.241,-0.043 -0.48,-0.089 -0.716,-0.154 -0.038,-0.011 -0.078,-0.013 -0.118,-0.02 0.12,-1.841 0.271,-3.68 0.455,-5.515 1.907,-0.12 3.815,-0.172 5.726,-0.149 1.821,0.022 1.872,-2.807 0.048,-2.83 -2.349,-0.028 -4.695,0.051 -7.037,0.239 -0.818,0.066 -1.349,0.565 -1.439,1.391 -0.277,2.544 -0.494,5.094 -0.641,7.649 -0.137,2.356 -0.396,4.823 -0.186,7.18 0.195,2.187 1.293,3.984 3.604,4.31 2.391,0.337 4.941,0.043 7.325,-0.241 0.759,-0.091 1.189,-1.054 1.017,-1.724zm20.498 -17.705c-0.147,-1.219 -2.043,-1.385 -2.58,-0.382 -0.88,1.638 -1.86,3.217 -2.956,4.72 -0.505,0.692 -1.033,1.368 -1.588,2.021 -0.317,0.372 -0.64,0.739 -0.97,1.1 -0.039,0.042 -0.079,0.084 -0.117,0.127 -0.213,-0.364 -0.424,-0.729 -0.636,-1.092l-1.305 -2.245c-0.871,-1.496 -1.742,-2.992 -2.611,-4.488 -0.217,-0.372 -0.521,-0.575 -0.846,-0.653 -0.71,-0.797 -2.438,-0.515 -2.531,0.896 -0.378,5.713 -0.755,11.427 -1.132,17.14 -0.12,1.819 2.709,1.863 2.83,0.049 0.29,-4.397 0.581,-8.794 0.871,-13.191 0.588,1.012 1.178,2.025 1.767,3.037 0.557,0.959 1.077,1.958 1.683,2.887 0.574,0.879 1.581,1.411 2.6,0.876 0.781,-0.41 1.41,-1.311 1.981,-1.964 0.69,-0.789 1.352,-1.606 1.986,-2.442 0.404,-0.533 0.789,-1.081 1.164,-1.634 0.22,4.039 0.052,8.099 -0.461,12.109 -0.098,0.759 0.686,1.427 1.391,1.439 0.834,0.014 1.341,-0.629 1.438,-1.391 0.722,-5.629 0.699,-11.287 0.022,-16.919zm14.625 15.367c-1.999,0.717 -4.174,0.302 -6.203,-0.114 0.24,-2.345 0.439,-4.694 0.585,-7.046 0.129,0.004 0.263,-0.002 0.409,-0.032 0.607,-0.126 1.217,-0.274 1.813,-0.459 1.2,-0.171 2.428,-0.068 3.542,0.48 1.427,0.702 2.408,2.143 2.459,3.746 0.052,1.665 -1.094,2.882 -2.605,3.425zm-2.785 -14.863c0.795,0.18 1.549,0.755 1.554,1.625 0.008,1.519 -1.331,2.325 -2.727,2.799 -0.513,0.079 -1.016,0.209 -1.511,0.365 0.066,-1.447 0.117,-2.895 0.146,-4.344 0.791,-0.388 1.662,-0.645 2.538,-0.445zm4.641 5.403c-0.452,-0.256 -0.928,-0.451 -1.414,-0.616 0.87,-1.121 1.327,-2.568 1.078,-3.978 -0.296,-1.68 -1.693,-2.952 -3.269,-3.458 -1.919,-0.616 -3.968,0.002 -5.639,0.993 -0.477,0.283 -0.677,0.709 -0.685,1.138 -0.037,0.124 -0.063,0.255 -0.066,0.403 -0.092,5.287 -0.423,10.567 -0.991,15.823 -0.077,0.702 0.563,1.316 1.223,1.418 0.152,0.126 0.344,0.224 0.589,0.274 2.908,0.598 5.915,1.121 8.744,-0.073 2.364,-0.998 4.058,-3.219 4.009,-5.84 -0.048,-2.474 -1.419,-4.859 -3.579,-6.084zm17.654 9.449c-2.211,0.041 -4.467,0.196 -6.687,0.146 0.001,-0.053 0.001,-0.104 -0.002,-0.139 -0.026,-0.34 -0.05,-0.68 -0.077,-1.019 -0.05,-0.68 -0.101,-1.359 -0.152,-2.038l-0.247 -3.289 3.842 0.066c0.74,0.013 1.46,-0.626 1.438,-1.391 -0.021,-0.767 -0.598,-1.426 -1.391,-1.439l-3.959 -0.067c-0.048,-0.001 -0.094,0.008 -0.142,0.013 -0.051,-0.681 -0.102,-1.362 -0.153,-2.043 -0.047,-0.622 -0.094,-1.244 -0.141,-1.867 -0.017,-0.229 -0.078,-0.638 -0.122,-1.016 0.211,0.01 0.412,0.023 0.512,0.02 0.561,-0.02 1.121,-0.041 1.682,-0.061 1.065,-0.039 2.13,-0.077 3.196,-0.115 1.813,-0.065 1.872,-2.895 0.047,-2.83 -1.569,0.057 -3.139,0.114 -4.709,0.17 -1.247,0.045 -3.114,-0.198 -3.521,1.374 -0.177,0.683 0.021,1.549 0.073,2.24 0.055,0.736 0.11,1.472 0.166,2.207 0.114,1.528 0.229,3.057 0.344,4.584l0.331 4.415 0.179 2.376c0.055,0.737 0.038,1.549 0.589,2.12 0.927,0.959 2.964,0.522 4.157,0.5 1.566,-0.029 3.132,-0.057 4.699,-0.087 1.816,-0.034 1.873,-2.864 0.048,-2.83zm9.193 -14.71c0.582,0.108 1.163,0.242 1.725,0.429 0.795,0.265 1.756,0.704 2.043,1.564 0.328,0.986 -0.412,2.03 -1.19,2.561 -1.058,0.723 -2.415,0.868 -3.671,0.925 0.003,-1.807 0.006,-3.614 0.01,-5.421 0.056,-0.051 0.11,-0.109 0.161,-0.172 0.004,-0.002 0.005,-0.002 0.009,-0.003 0.074,0.032 0.155,0.039 0.241,0.02 0.225,0.006 0.451,0.055 0.672,0.097zm9.799 13.948c-0.204,0.121 -0.103,0.172 -0.396,0.065 -0.228,-0.084 -0.379,-0.166 -0.559,-0.335 -0.428,-0.402 -0.667,-1.003 -0.926,-1.519 -0.604,-1.207 -1.327,-2.328 -2.285,-3.288 -0.632,-0.634 -1.328,-1.173 -2.067,-1.634 0.45,-0.238 0.879,-0.522 1.273,-0.874 1.574,-1.41 2.318,-3.706 1.432,-5.687 -0.754,-1.685 -2.471,-2.608 -4.172,-3.094 -1.721,-0.49 -4.169,-1.104 -5.329,0.695 -0.097,0.15 -0.152,0.298 -0.188,0.444 -0.293,0.222 -0.494,0.57 -0.495,1.053 -0.009,5.281 -0.019,10.561 -0.028,15.841 -0.003,1.82 2.827,1.873 2.83,0.048l0.013 -7.28c2.367,0.405 4.596,1.875 5.869,3.904 0.769,1.229 1.2,2.67 2.346,3.628 1.139,0.953 2.747,1.285 4.069,0.501 1.564,-0.928 0.186,-3.401 -1.387,-2.468zm-12.431 62.389c-0.627,1.203 -7.493,-1.115 -8.697,-1.241 -0.283,-0.03 -0.565,-0.046 -0.846,-0.058 3.854,-4.978 10.521,-8.702 8.024,-16.178 -2.404,-7.194 -11.733,-7.17 -15.454,-1.276 -1.951,3.089 2.945,5.933 4.887,2.857 1.574,-2.491 5.288,-1.862 5.376,1.309 0.072,2.625 -2.223,4.781 -3.925,6.473 -3.021,3.001 -5.988,5.894 -6.754,10.263 -0.385,2.191 1.931,4.731 4.158,3.196 5.233,-3.607 14.298,4.835 18.119,-2.488 1.683,-3.226 -3.2,-6.092 -4.888,-2.857zm11.692 -15.185l-0.046 -2.761c2.221,-0.007 4.441,-0.038 6.663,-0.125 3.63,-0.141 3.649,-5.803 0,-5.661 -3.181,0.124 -6.357,0.166 -9.54,0.126 -1.512,-0.018 -2.855,1.313 -2.83,2.831 0.052,3.172 0.105,6.343 0.157,9.515 0.036,2.129 2.383,3.549 4.259,2.444 2.975,-1.753 7.181,-0.854 8.182,2.784 1.03,3.742 -3.145,9.12 -6.566,5.241 -2.415,-2.738 -6.406,1.278 -4.004,4.002 6.327,7.173 16.63,0.294 16.422,-8.051 -0.174,-6.996 -6.504,-11.246 -12.697,-10.345zm-71.46 6.449c3.378,0.186 6.761,0.303 10.144,0.342 1.692,0.019 3.383,0.019 5.075,0.002 0.781,-0.009 1.562,-0.021 2.342,-0.037 0.423,-0.009 0.937,0.03 1.419,0.006 0.002,-0.185 0.004,-0.371 0.004,-0.556 0,-0.509 -0.007,-1.017 -0.022,-1.525 -0.031,-1.016 -0.094,-2.031 -0.186,-3.044 -0.186,-2.013 -0.516,-4.004 -0.953,-5.979 -0.437,-1.976 2.601,-2.821 3.039,-0.838 0.662,2.991 1.083,6.04 1.223,9.099 0.061,1.329 0.306,2.994 -0.07,4.288 -0.442,1.52 -1.952,1.639 -3.282,1.674 -6.246,0.162 -12.496,0.063 -18.733,-0.28 -2.018,-0.111 -2.03,-3.264 0,-3.152zm-34.428 -1.509c3.378,0.186 6.76,0.303 10.144,0.342 1.692,0.019 3.383,0.019 5.075,0.002 0.78,-0.009 1.561,-0.021 2.342,-0.037 0.422,-0.009 0.936,0.03 1.418,0.005 0.003,-0.184 0.005,-0.37 0.005,-0.555 0,-0.509 -0.008,-1.017 -0.023,-1.525 -0.031,-1.016 -0.093,-2.031 -0.186,-3.044 -0.185,-2.014 -0.516,-4.004 -0.952,-5.979 -0.438,-1.976 2.601,-2.82 3.039,-0.838 0.661,2.991 1.082,6.04 1.222,9.099 0.061,1.328 0.307,2.994 -0.07,4.287 -0.442,1.521 -1.952,1.64 -3.282,1.675 -6.245,0.162 -12.495,0.063 -18.732,-0.28 -2.018,-0.111 -2.03,-3.264 0,-3.152zm0.532 -26.806c3.378,0.186 6.761,0.303 10.144,0.342 1.692,0.019 3.383,0.02 5.075,0.002 0.781,-0.008 1.561,-0.021 2.342,-0.037 0.423,-0.008 0.937,0.03 1.419,0.006 0.002,-0.185 0.004,-0.37 0.004,-0.556 0,-0.508 -0.007,-1.016 -0.023,-1.524 -0.03,-1.017 -0.093,-2.032 -0.186,-3.045 -0.185,-2.013 -0.515,-4.004 -0.952,-5.978 -0.438,-1.977 2.601,-2.821 3.039,-0.838 0.662,2.99 1.083,6.039 1.223,9.098 0.06,1.329 0.306,2.995 -0.071,4.288 -0.441,1.52 -1.951,1.639 -3.282,1.675 -6.245,0.162 -12.495,0.063 -18.732,-0.281 -2.018,-0.111 -2.031,-3.264 0,-3.152zm-37.213 0c3.378,0.186 6.76,0.303 10.143,0.342 1.692,0.019 3.384,0.02 5.076,0.002 0.78,-0.008 1.561,-0.021 2.341,-0.037 0.423,-0.008 0.937,0.03 1.419,0.006 0.003,-0.185 0.005,-0.37 0.005,-0.556 0,-0.508 -0.008,-1.016 -0.024,-1.524 -0.03,-1.017 -0.092,-2.032 -0.185,-3.045 -0.185,-2.013 -0.516,-4.004 -0.953,-5.978 -0.437,-1.977 2.602,-2.821 3.04,-0.838 0.661,2.99 1.082,6.039 1.222,9.098 0.061,1.329 0.307,2.995 -0.07,4.288 -0.442,1.52 -1.952,1.639 -3.282,1.675 -6.246,0.162 -12.495,0.063 -18.732,-0.281 -2.018,-0.111 -2.031,-3.264 0,-3.152zm71.376 0.129c5.326,0.454 10.665,0.752 16.009,0.885 0.644,0.016 1.288,0.03 1.931,0.041 0.161,0.003 0.434,-0.036 0.667,-0.032 -0.006,-0.163 -0.001,-0.335 -0.012,-0.436 -0.042,-0.382 -0.088,-0.762 -0.131,-1.144l-0.219 -1.906c-0.306,-2.668 -0.612,-5.337 -0.919,-8.006 -0.098,-0.846 0.793,-1.575 1.576,-1.575 0.933,0 1.479,0.726 1.576,1.575 0.351,3.05 0.7,6.1 1.051,9.15 0.144,1.256 0.556,2.745 0.073,3.966 -0.563,1.422 -1.928,1.589 -3.275,1.567 -6.117,-0.099 -12.23,-0.414 -18.327,-0.933 -2.006,-0.17 -2.024,-3.325 0,-3.152zm32.521 0.089l8.891 0.089 4.355 0.044c0.725,0.007 1.451,0.014 2.177,0.022 0.362,0.003 0.824,0.053 1.268,0.061 -0.009,-0.106 -0.018,-0.211 -0.027,-0.317 -0.042,-0.476 -0.087,-0.951 -0.137,-1.427 -0.09,-0.88 -0.192,-1.76 -0.31,-2.637 -0.246,-1.824 -0.556,-3.639 -0.911,-5.446 -0.388,-1.981 2.649,-2.83 3.04,-0.837 0.533,2.717 0.952,5.455 1.258,8.208 0.133,1.196 0.502,2.665 0.193,3.85 -0.397,1.525 -1.741,1.723 -3.103,1.71 -5.565,-0.056 -11.13,-0.112 -16.694,-0.168 -2.027,-0.02 -2.033,-3.173 0,-3.152zm125.016 75.133c-9.036,8.766 -23.685,9.335 -31.936,-0.506 0.935,-3.815 0.889,-7.836 -0.426,-11.711 2.14,-0.054 4.268,-0.335 6.323,-0.972 8.461,-2.616 15.367,-9.423 18.373,-17.686 11.168,5.249 17.563,21.272 7.666,30.875zm10.618 2.971c-0.187,0.308 -0.485,0.646 -0.612,0.844 -0.311,0.492 -0.623,0.983 -0.934,1.475l-0.689 1.086c-0.659,-1.583 -1.487,-3.074 -2.481,-4.495 0.326,-0.414 0.641,-0.836 0.932,-1.27 0.45,0.272 0.905,0.532 1.349,0.813 0.471,0.297 0.939,0.599 1.404,0.905 0.219,0.146 0.705,0.388 1.031,0.642zm-4.866 4.378c0.099,0.234 0.193,0.47 0.285,0.708 0.053,0.139 0.104,0.277 0.155,0.417 0.021,0.06 0.168,0.491 0.065,0.181 0.077,0.231 0.164,0.432 0.294,0.609 -0.451,0.713 -0.903,1.425 -1.356,2.138 -0.767,-2.084 -1.629,-4.132 -2.58,-6.139 0.463,-0.4 0.915,-0.818 1.355,-1.249 0.121,0.188 0.243,0.375 0.359,0.566 0.276,0.452 0.535,0.916 0.776,1.387 0.232,0.453 0.447,0.914 0.647,1.382zm5.559 11.205c-0.499,0.882 -0.973,1.777 -1.451,2.67 -0.599,-1.287 -1.301,-2.522 -1.974,-3.775 1.141,0.368 2.283,0.737 3.425,1.105zm-4.09 7.844c-2.654,-6.168 -5.685,-12.181 -8.737,-18.161 0.627,-0.372 1.24,-0.768 1.84,-1.188 1.124,2.425 2.125,4.905 2.982,7.438 -0.206,0.683 0.109,1.469 0.812,1.74 1.151,2.621 3.004,5.112 3.844,7.757 0.053,0.168 0.13,0.329 0.227,0.477 -0.323,0.646 -0.657,1.286 -0.968,1.937zm6.834 6.122c-0.796,1.928 -1.582,3.87 -2.341,5.825 -0.792,-2.502 -1.671,-4.971 -2.627,-7.41 1.664,0.506 3.321,1.03 4.968,1.585zm-4.035 10.006c0.018,0.066 0.046,0.124 0.071,0.183 -0.361,1.023 -0.712,2.05 -1.043,3.082 -4.729,-11.92 -9.807,-23.701 -15.229,-35.322 0.731,-0.274 1.448,-0.588 2.158,-0.92 5.434,10.646 10.862,21.406 14.043,32.977zm-2.239 7.65c-0.374,1.429 -0.717,2.864 -0.996,4.313 -3.63,-11.652 -8.267,-22.986 -13.896,-33.818 -1.528,-2.941 -3.104,-5.872 -4.871,-8.681 1.036,-0.161 2.065,-0.384 3.083,-0.656 5.925,12.678 11.444,25.543 16.543,38.576 0.039,0.099 0.086,0.186 0.137,0.266zm-13.606 -20.495c2.906,6.22 5.497,12.586 7.763,19.066 1.271,3.638 2.428,7.316 3.488,11.021 0.093,0.33 0.28,0.615 0.524,0.823 -0.05,0.653 -0.087,1.308 -0.108,1.963 -2.975,-6.935 -6.003,-13.846 -9.114,-20.721 -3.565,-7.876 -6.949,-15.992 -11.586,-23.314 -1.285,-2.026 -2.679,-3.968 -4.169,-5.846 -0.132,-0.166 -0.264,-0.332 -0.395,-0.498 1.428,0.159 2.869,0.192 4.311,0.127 3.59,5.476 6.522,11.458 9.286,17.379zm-6.272 -0.186c3.838,7.921 7.404,15.985 10.952,24.038 1.215,2.757 2.415,5.521 3.607,8.287 -7.404,-6.659 -16.119,-11.982 -26.342,-12.255 -2.357,-0.063 -4.682,0.176 -6.953,0.707 1.737,-4.397 2.647,-9.079 2.562,-13.839 -0.019,-1.061 -1.004,-1.854 -2.036,-1.371 -1.468,0.687 -2.935,1.374 -4.402,2.061 0.777,-3.316 1.049,-6.718 0.838,-10.144 -0.052,-0.849 -1.303,-1.482 -2.015,-1.005 -1.931,1.295 -3.963,2.445 -6.075,3.42 4.563,-6.582 8.508,-13.575 11.81,-20.877 2.058,1.279 4.268,2.23 6.56,2.865 1.735,2.416 3.722,4.666 5.38,7.136 2.336,3.48 4.289,7.209 6.114,10.977zm-33.101 -20.063c-6.697,4.994 -15.943,6.09 -23.27,1.817 -6.762,-3.943 -10.984,-12.782 -9.712,-20.532 1.403,-8.55 10.919,-14.919 19.006,-16.221 2.123,4.243 5.29,7.893 9.467,10.016 3.337,1.696 7.33,2.354 11.042,2.855 0.023,0.054 0.034,0.105 0.061,0.159 4.08,7.995 0.207,16.835 -6.594,21.906zm-17.855 18.502c-0.164,0.15 -0.281,0.335 -0.36,0.534 -0.78,-0.318 -1.564,-0.625 -2.359,-0.906 2.817,-2.472 5.421,-5.171 7.806,-8.061 0.276,-0.007 0.552,-0.025 0.828,-0.039 -1.322,3.226 -3.341,6.125 -5.915,8.472zm4.583 2.836c-0.749,-0.398 -1.511,-0.771 -2.277,-1.132 1,-0.954 1.93,-1.979 2.766,-3.073 -0.206,1.396 -0.381,2.797 -0.489,4.205zm-10.368 -4.19c-1.6,-0.465 -3.22,-0.867 -4.864,-1.189 0.526,-0.379 1.044,-0.763 1.558,-1.145 2.338,-1.743 4.552,-3.644 6.646,-5.672 1.309,0.364 2.637,0.613 3.972,0.765 -2.159,2.456 -4.501,4.748 -6.999,6.864 -0.137,0.117 -0.235,0.246 -0.313,0.377zm-11.562 -0.611c-0.234,0.072 -0.446,0.189 -0.627,0.337 -0.982,-1.094 -1.857,-2.287 -2.59,-3.569 4.281,-1.813 8.347,-4.066 12.17,-6.706 0.253,0.151 0.502,0.309 0.761,0.45 0.718,0.387 1.451,0.724 2.19,1.035 -1.603,1.488 -3.273,2.903 -5.016,4.227 -2.076,1.579 -4.363,3.441 -6.888,4.226zm3.837 4.092c-0.808,-0.5 -1.574,-1.062 -2.303,-1.669 0.817,-0.324 1.601,-0.722 2.364,-1.163 -0.091,0.942 -0.109,1.889 -0.061,2.832zm-10 -9.16c-1.971,1.668 -3.943,3.338 -5.915,5.006 -0.013,-0.542 -0.026,-1.085 -0.038,-1.629 -0.037,-1.542 0.047,-3.145 -0.131,-4.679 -0.015,-0.132 -0.047,-0.244 -0.076,-0.362 5.938,-1.151 11.467,-3.876 16.829,-6.63 0.623,0.609 1.282,1.173 1.962,1.711 -3.71,2.482 -7.673,4.568 -11.81,6.25 -0.292,0.025 -0.582,0.131 -0.821,0.333zm-13.104 -4.945c-1.608,-0.414 -3.22,-0.816 -4.831,-1.218 8.516,-1.224 16.864,-3.498 24.842,-6.745 0.549,0.85 1.145,1.668 1.781,2.449 -5.789,2.962 -11.739,5.797 -18.29,6.445 -1.165,-0.318 -2.332,-0.63 -3.502,-0.931zm-12.575 -3.197c-1.399,-0.374 -2.793,-0.763 -4.182,-1.172 -0.888,-0.263 -1.772,-0.541 -2.654,-0.824 10.213,-0.535 20.473,-1.609 30.234,-4.772 2.258,-0.731 4.63,-1.493 6.823,-2.529 0.286,0.699 0.601,1.387 0.944,2.06 -9.901,4.003 -20.393,6.423 -31.044,7.211 -0.042,0.004 -0.08,0.019 -0.121,0.026zm11.133 -18.454c0.352,-0.325 0.564,-0.844 0.45,-1.324 -0.861,-3.639 -1.964,-7.217 -3.283,-10.716 3.462,1.17 6.923,2.339 10.384,3.509 0.563,0.19 1.327,-0.019 1.636,-0.559 1.358,-2.37 2.796,-4.691 4.308,-6.963 0.36,0.84 0.635,1.716 0.806,2.64 0.205,1.108 1.504,1.451 2.331,0.794 3.686,-2.929 7.079,-6.179 10.194,-9.7 0.535,0.671 1.071,1.341 1.606,2.012 -5.435,3.697 -9.763,9.04 -10.955,15.237 -0.731,3.797 -0.44,7.771 0.664,11.535 -1.83,0.882 -3.797,1.561 -5.684,2.202 -2.654,0.902 -5.37,1.629 -8.106,2.236 -5.493,1.219 -11.087,1.923 -16.691,2.371 -2.16,0.173 -4.322,0.296 -6.484,0.403 6.771,-3.819 13.101,-8.41 18.824,-13.677zm44.543 -35.743c0.851,-6.105 5.136,-11.559 9.75,-15.391 9.223,-7.66 23.401,-6.334 30.663,3.402 7.238,9.705 5.156,23.144 -4.015,30.746 -4.791,3.972 -10.266,5.274 -16.339,4.517 -2.979,-0.371 -6.01,-0.547 -8.883,-1.488 -2.877,-0.943 -5.378,-2.754 -7.175,-5.183 -3.481,-4.71 -4.804,-10.842 -4.001,-16.603zm13.964 -27.677c1.097,0.007 1.807,-1.017 1.37,-2.038 -0.575,-1.341 -1.151,-2.684 -1.726,-4.026 1.521,-0.318 3.059,-0.63 4.513,-1.116 0.065,-0.022 0.124,-0.049 0.186,-0.072 -0.906,3.387 -1.79,6.78 -2.633,10.183 -1.578,0.508 -3.118,1.149 -4.602,1.93 -1.609,-1.26 -3.218,-2.522 -4.827,-3.784 2.503,-0.731 5.107,-1.096 7.719,-1.077zm11.864 -23.42c0.09,-0.295 0.081,-0.564 0.012,-0.803 1.936,-0.489 3.884,-0.928 5.844,-1.307 -4.687,8.484 -7.939,17.671 -9.631,27.219 -1.099,0.075 -2.188,0.227 -3.264,0.437 2.152,-8.568 4.494,-17.087 7.039,-25.546zm-6.603 1.096c1.212,-0.394 2.434,-0.757 3.659,-1.106 -0.889,2.97 -1.748,5.947 -2.587,8.93 -0.158,-2.63 -0.512,-5.247 -1.072,-7.824zm15.852 -3.802c0.351,-0.058 0.702,-0.118 1.055,-0.171 0.789,-0.119 1.22,-0.92 1.126,-1.655 -0.145,-1.118 -0.223,-2.232 -0.244,-3.352 0.801,0.024 1.602,-0.003 2.402,-0.093 0.739,-0.083 1.483,-0.242 2.086,-0.604 -4.16,7.54 -7.548,15.507 -10.035,23.749 -1.025,3.4 -1.896,6.846 -2.621,10.322 -0.004,0.019 -0.005,0.039 -0.008,0.059 -1.309,-0.262 -2.616,-0.413 -3.916,-0.47 1.722,-9.536 5.105,-18.761 9.957,-27.146 0.125,-0.216 0.184,-0.432 0.198,-0.639zm9.295 -5.277c1.716,-3.052 3.566,-6.026 5.539,-8.92 0.205,-0.3 0.271,-0.601 0.244,-0.881 1.713,-0.447 3.397,-0.999 5.037,-1.659 -7.856,10.971 -12.771,23.794 -16.347,36.741 -0.994,3.596 -1.883,7.218 -2.737,10.848 -0.707,-0.379 -1.432,-0.73 -2.178,-1.043 -0.788,-0.33 -1.578,-0.607 -2.369,-0.856 2.512,-11.972 6.815,-23.563 12.811,-34.23zm-1.118 -5.547c0.176,-1.042 0.353,-2.083 0.529,-3.126 0.947,-0.088 1.889,-0.211 2.825,-0.367 -1.297,1.961 -2.546,3.952 -3.729,5.984 0.159,-0.828 0.24,-1.695 0.375,-2.491zm15.663 -6.003c0.366,-0.569 0.663,-1.032 0.963,-1.44 0.557,-0.758 1.129,-1.321 2.196,-1.997 1.212,-0.769 3.687,-1.962 4.419,-3.219 -8.695,14.939 -15.69,30.869 -20.77,47.39 -1.192,3.879 -2.275,7.791 -3.256,11.729 -1.173,-1.195 -2.458,-2.28 -3.839,-3.24 3.283,-14.03 7.241,-28.117 14.474,-40.678 1.722,-2.991 3.941,-5.651 5.813,-8.545z"/></g></g></g></g></svg>