<?xml version="1.0" ?><svg height="50.666798" id="svg9" version="1.1" viewBox="0 0 74.666664 50.666798" width="74.666664" xmlns="http://www.w3.org/2000/svg" xmlns:svg="http://www.w3.org/2000/svg"><defs id="defs13"><clipPath clipPathUnits="userSpaceOnUse" id="clipPath25"><path d="M 0,64 H 64 V 0 H 0 Z" id="path23"/></clipPath></defs><g id="g17" transform="matrix(1.3333333,0,0,-1.3333333,-5.3333332,68.000132)"><g id="g19"><g clip-path="url(#clipPath25)" id="g21"><g id="g27" transform="translate(9,45.9141)"><path d="M 0,0 C -1.654,0 -3,-1.397 -3,-3.114 V -27.8 c 0,-1.717 1.346,-3.114 3,-3.114 h 46 c 1.654,0 3,1.397 3,3.114 v 27.772 c 0,1.717 -1.346,3.114 -3,3.114 H 20.084 L 18.224,0.427 C 18.037,0.159 17.73,0 17.404,0 Z M 46,-32.914 H 0 c -2.757,0 -5,2.294 -5,5.114 V -3.114 C -5,-0.294 -2.757,2 0,2 h 16.884 l 1.861,2.659 c 0.187,0.268 0.493,0.427 0.819,0.427 H 46 c 2.757,0 5,-2.294 5,-5.114 V -27.8 c 0,-2.82 -2.243,-5.114 -5,-5.114" id="path29" style="fill:#231f20;fill-opacity:1;fill-rule:nonzero;stroke:none"/></g><g id="g31" transform="translate(59,39)"><path d="m 0,0 h -54 c -0.552,0 -1,0.448 -1,1 0,0.552 0.448,1 1,1 H 0 C 0.552,2 1,1.552 1,1 1,0.448 0.552,0 0,0" id="path33" style="fill:#231f20;fill-opacity:1;fill-rule:nonzero;stroke:none"/></g><g id="g35" transform="translate(32,39)"><path d="m 0,0 c -6.617,0 -12,-5.383 -12,-12 0,-6.617 5.383,-12 12,-12 6.617,0 12,5.383 12,12 C 12,-5.383 6.617,0 0,0 m 0,-26 c -7.72,0 -14,6.28 -14,14 0,7.72 6.28,14 14,14 7.72,0 14,-6.28 14,-14 0,-7.72 -6.28,-14 -14,-14" id="path37" style="fill:#231f20;fill-opacity:1;fill-rule:nonzero;stroke:none"/></g><g id="g39" transform="translate(32,35)"><path d="m 0,0 c -4.411,0 -8,-3.589 -8,-8 0,-4.411 3.589,-8 8,-8 4.411,0 8,3.589 8,8 0,4.411 -3.589,8 -8,8" id="path41" style="fill:#231f20;fill-opacity:1;fill-rule:nonzero;stroke:none"/></g><g id="g43" transform="translate(55.5371,33)"><path d="M 0,0 H -5.074 C -5.33,0 -5.537,0.207 -5.537,0.463 V 3.537 C -5.537,3.793 -5.33,4 -5.074,4 H 0 C 0.256,4 0.463,3.793 0.463,3.537 V 0.463 C 0.463,0.207 0.256,0 0,0" id="path45" style="fill:#231f20;fill-opacity:1;fill-rule:nonzero;stroke:none"/></g><g id="g47" transform="translate(13,34)"><path d="m 0,0 h -8 c -0.552,0 -1,0.448 -1,1 0,0.552 0.448,1 1,1 H 0 C 0.552,2 1,1.552 1,1 1,0.448 0.552,0 0,0" id="path49" style="fill:#231f20;fill-opacity:1;fill-rule:nonzero;stroke:none"/></g><g id="g51" transform="translate(25,50)"><path d="M 0,0 V -1.09 H -7 V 0 c 0,0.55 0.45,1 1,1 h 5 C -0.45,1 0,0.55 0,0" id="path53" style="fill:#231f20;fill-opacity:1;fill-rule:nonzero;stroke:none"/></g><g id="g55" transform="translate(16,50)"><path d="m 0,0 v -1.09 h -7 c -0.71,0 -1.39,-0.15 -2,-0.43 V 0 c 0,0.55 0.45,1 1,1 h 7 C -0.45,1 0,0.55 0,0" id="path57" style="fill:#231f20;fill-opacity:1;fill-rule:nonzero;stroke:none"/></g></g></g></g></svg>